<svg
        width="16"
        height="4"
        viewBox="0 0 16 4"
        fill="none"
        xmlns="http://www.w3.org/2000/svg"
>
    <path
            d="M16 2C16 3.1046 15.1046 4 14 4C12.8954 4 12 3.1046 12 2C12 0.8954 12.8954 0 14 0C15.1046 0 16 0.8954 16 2ZM10 2C10 3.1046 9.1046 4 8 4C6.8954 4 6 3.1046 6 2C6 0.8954 6.8954 0 8 0C8.5304 0 9.0391 0.2107 9.4142 0.5858C9.7893 0.9609 10 1.4696 10 2ZM4 2C4 3.1046 3.10457 4 2 4C0.89543 4 0 3.1046 0 2C0 0.8954 0.89543 0 2 0C2.53043 0 3.03914 0.2107 3.41421 0.5858C3.78929 0.9609 4 1.4696 4 2Z"
            fill="black"
    />
</svg>