<svg
        width="5"
        height="16"
        viewBox="0 0 5 16"
        fill="none"
        xmlns="http://www.w3.org/2000/svg"
>
    <path
            d="M2.66699 16C1.56239 16 0.666992 15.1046 0.666992 14C0.666992 12.8954 1.56239 12 2.66699 12C3.77159 12 4.66699 12.8954 4.66699 14C4.66699 15.1046 3.77159 16 2.66699 16ZM2.66699 10C1.56239 10 0.666992 9.1046 0.666992 8C0.666992 6.8954 1.56239 6 2.66699 6C3.77159 6 4.66699 6.8954 4.66699 8C4.66699 8.5304 4.45629 9.0391 4.08119 9.4142C3.70609 9.7893 3.19739 10 2.66699 10ZM2.66699 4C1.56239 4 0.666992 3.10457 0.666992 2C0.666992 0.89543 1.56239 0 2.66699 0C3.77159 0 4.66699 0.89543 4.66699 2C4.66699 2.53043 4.45629 3.03914 4.08119 3.41421C3.70609 3.78929 3.19739 4 2.66699 4Z"
            fill="black"
    />
</svg>