<svg width="17" height="16" viewBox="0 0 17 16" fill="none" xmlns="http://www.w3.org/2000/svg">
<path d="M8.50065 15.1663C4.54732 15.1663 1.33398 11.953 1.33398 7.99967C1.33398 4.04634 4.54732 0.833008 8.50065 0.833008C12.454 0.833008 15.6673 4.04634 15.6673 7.99967C15.6673 11.953 12.454 15.1663 8.50065 15.1663ZM8.50065 1.83301C5.10065 1.83301 2.33398 4.59967 2.33398 7.99967C2.33398 11.3997 5.10065 14.1663 8.50065 14.1663C11.9007 14.1663 14.6673 11.3997 14.6673 7.99967C14.6673 4.59967 11.9007 1.83301 8.50065 1.83301Z" fill="#34C759"/>
<path d="M7.553 10.3867C7.41967 10.3867 7.293 10.3334 7.19967 10.2401L5.31297 8.3534C5.11964 8.16007 5.11964 7.84007 5.31297 7.64673C5.5063 7.4534 5.8263 7.4534 6.01964 7.64673L7.553 9.18006L10.9797 5.7534C11.173 5.56007 11.493 5.56007 11.6863 5.7534C11.8797 5.94673 11.8797 6.26673 11.6863 6.46006L7.90634 10.2401C7.813 10.3334 7.68634 10.3867 7.553 10.3867Z" fill="#34C759"/>
</svg>
