<svg width="97" height="35" viewBox="0 0 97 35" fill="none" xmlns="http://www.w3.org/2000/svg">
<rect x="0.5" y="0.5" width="96" height="34" rx="17" fill="#F0FBF3"/>
<path d="M18.1172 23.1641C18.8594 23.1641 19.2969 22.7109 19.2969 21.9375V18.875H21.3047L23.1797 22.2734C23.5625 22.9609 23.8203 23.1641 24.3828 23.1641C25.0703 23.1641 25.5703 22.7109 25.5703 22.0859C25.5703 21.8125 25.5156 21.6094 25.3203 21.2734L23.6953 18.4609C24.9375 17.9297 25.6328 16.7266 25.6328 15.3203C25.6328 13.0938 24.1484 11.7266 21.5547 11.7266H18.1172C17.375 11.7266 16.9375 12.1797 16.9375 12.9531V21.9375C16.9375 22.7109 17.3828 23.1641 18.1172 23.1641ZM19.2969 17.1641V13.5703H21.3047C22.4766 13.5703 23.2109 14.2734 23.2109 15.3672C23.2109 16.4844 22.5156 17.1641 21.3281 17.1641H19.2969ZM30.4456 23.1797C32.0628 23.1797 33.3597 22.5703 33.9144 21.5391C34.0159 21.3516 34.0706 21.1641 34.0706 20.9844C34.0706 20.4609 33.6722 20.1484 33.18 20.1484C32.8831 20.1484 32.68 20.2344 32.4378 20.4844C31.8206 21.2109 31.2738 21.4922 30.4378 21.4922C29.2816 21.4922 28.5316 20.6797 28.5316 19.4375V19.3359H33.3128C33.9456 19.3359 34.305 18.9766 34.305 18.3438C34.305 16.0703 32.7113 14.4453 30.3363 14.4453C27.8597 14.4453 26.2894 16.1562 26.2894 18.8516C26.2894 21.5625 27.8284 23.1797 30.4456 23.1797ZM28.555 17.9375C28.6331 16.8672 29.3597 16.1328 30.3597 16.1328C31.3597 16.1328 32.0628 16.8438 32.1097 17.9375H28.555ZM38.985 23.1797C40.5866 23.1797 42.0163 22.3828 42.5163 21.2422C42.6178 21.0156 42.6647 20.8281 42.6647 20.6484C42.6647 20.0859 42.235 19.7344 41.7038 19.7344C41.2194 19.7344 40.9694 19.9297 40.6647 20.4062C40.3131 21 39.8209 21.3906 39.0241 21.3906C37.8834 21.3906 37.1725 20.4531 37.1725 18.8047C37.1725 17.1875 37.8834 16.2344 39.0397 16.2344C39.7663 16.2344 40.2741 16.5703 40.6881 17.3047C40.9225 17.7188 41.1959 17.8984 41.6491 17.8984C42.1881 17.8984 42.6256 17.5703 42.6256 17.0078C42.6256 16.8438 42.5788 16.6406 42.5006 16.4453C42.0475 15.2578 40.6491 14.4453 38.9694 14.4453C36.4538 14.4453 34.86 16.1328 34.86 18.8125C34.86 21.5234 36.4616 23.1797 38.985 23.1797ZM47.415 23.1797C49.0322 23.1797 50.3291 22.5703 50.8838 21.5391C50.9853 21.3516 51.04 21.1641 51.04 20.9844C51.04 20.4609 50.6416 20.1484 50.1494 20.1484C49.8525 20.1484 49.6494 20.2344 49.4072 20.4844C48.79 21.2109 48.2431 21.4922 47.4072 21.4922C46.2509 21.4922 45.5009 20.6797 45.5009 19.4375V19.3359H50.2822C50.915 19.3359 51.2744 18.9766 51.2744 18.3438C51.2744 16.0703 49.6806 14.4453 47.3056 14.4453C44.8291 14.4453 43.2588 16.1562 43.2588 18.8516C43.2588 21.5625 44.7978 23.1797 47.415 23.1797ZM45.5244 17.9375C45.6025 16.8672 46.3291 16.1328 47.3291 16.1328C48.3291 16.1328 49.0322 16.8438 49.0791 17.9375H45.5244ZM53.3138 13.5859C54.0013 13.5859 54.5325 13.0625 54.5325 12.4062C54.5325 11.7422 54.0013 11.2266 53.3138 11.2266C52.6263 11.2266 52.095 11.7422 52.095 12.4062C52.095 13.0625 52.6263 13.5859 53.3138 13.5859ZM53.3138 23.1641C54.0169 23.1641 54.4544 22.7188 54.4544 21.9766V15.6484C54.4544 14.9062 54.0169 14.4531 53.3138 14.4531C52.6028 14.4531 52.1731 14.9062 52.1731 15.6484V21.9766C52.1731 22.7188 52.6028 23.1641 53.3138 23.1641ZM59.1734 23.1641C60.0016 23.1641 60.4781 22.8047 60.7672 22L62.9469 16.1094C63.0172 15.9141 63.0719 15.6797 63.0719 15.4688C63.0719 14.8906 62.5953 14.4531 61.9625 14.4531C61.4313 14.4531 61.0484 14.7422 60.8922 15.3438L59.1969 20.9844H59.15L57.4547 15.3672C57.2828 14.75 56.9156 14.4531 56.3609 14.4531C55.7125 14.4531 55.2203 14.8594 55.2203 15.4766C55.2203 15.7109 55.275 15.9531 55.3453 16.1562L57.525 22C57.8297 22.8125 58.2984 23.1641 59.1734 23.1641ZM67.4081 23.1797C69.0253 23.1797 70.3222 22.5703 70.8769 21.5391C70.9784 21.3516 71.0331 21.1641 71.0331 20.9844C71.0331 20.4609 70.6347 20.1484 70.1425 20.1484C69.8456 20.1484 69.6425 20.2344 69.4003 20.4844C68.7831 21.2109 68.2363 21.4922 67.4003 21.4922C66.2441 21.4922 65.4941 20.6797 65.4941 19.4375V19.3359H70.2753C70.9081 19.3359 71.2675 18.9766 71.2675 18.3438C71.2675 16.0703 69.6738 14.4453 67.2988 14.4453C64.8222 14.4453 63.2519 16.1562 63.2519 18.8516C63.2519 21.5625 64.7909 23.1797 67.4081 23.1797ZM65.5175 17.9375C65.5956 16.8672 66.3222 16.1328 67.3222 16.1328C68.3222 16.1328 69.0253 16.8438 69.0722 17.9375H65.5175ZM75.2366 23.1328C76.5256 23.1328 77.4475 22.4609 77.8147 21.5234H77.8537V22.0078C77.8537 22.7734 78.3459 23.1641 79.0022 23.1641C79.6662 23.1641 80.135 22.7656 80.135 22.0078V12.75C80.135 11.9688 79.6662 11.5547 78.9944 11.5547C78.3303 11.5547 77.8537 11.9688 77.8537 12.75V16.0625H77.8069C77.4006 15.1328 76.4631 14.4922 75.2522 14.4922C73.1506 14.4922 71.8225 16.1406 71.8225 18.7969C71.8225 21.4766 73.1428 23.1328 75.2366 23.1328ZM76.01 21.2969C74.8616 21.2969 74.1584 20.3516 74.1584 18.8125C74.1584 17.2812 74.8616 16.3203 76.01 16.3203C77.1428 16.3203 77.8694 17.2891 77.8694 18.8125C77.8694 20.3438 77.1428 21.2969 76.01 21.2969Z" fill="#34C759"/>
<rect x="0.5" y="0.5" width="96" height="34" rx="17" stroke="#BBEDC7"/>
</svg>
