<svg width="20" height="21" viewBox="0 0 20 21" fill="none" xmlns="http://www.w3.org/2000/svg">
<path d="M15.8933 12.3683C15.6516 12.61 15.2683 12.61 15.0351 12.3683C14.7934 12.1267 14.7934 11.7433 15.0351 11.51C16.7017 9.84333 16.7017 7.13496 15.0351 5.47663C13.3684 3.8183 10.66 3.80996 9.00165 5.47663C7.34336 7.1433 7.33503 9.85166 9.00165 11.51C9.24332 11.7517 9.24332 12.135 9.00165 12.3683C8.75998 12.61 8.37665 12.61 8.14336 12.3683C6.00169 10.2267 6.00169 6.7433 8.14336 4.60996C10.285 2.47663 13.7683 2.4683 15.9016 4.60996C18.035 6.75163 18.035 10.2267 15.8933 12.3683Z" fill="#707070"/>
<path d="M4.10729 8.6334C4.34896 8.39173 4.73229 8.39173 4.96563 8.6334C5.20729 8.87509 5.20729 9.25842 4.96563 9.49176C3.29896 11.1584 3.29896 13.8668 4.96563 15.5251C6.63229 17.1834 9.34067 17.1918 10.999 15.5251C12.6573 13.8584 12.6657 11.1501 10.999 9.49176C10.7573 9.25009 10.7573 8.86676 10.999 8.6334C11.2407 8.39173 11.624 8.39173 11.8573 8.6334C13.999 10.7751 13.999 14.2584 11.8573 16.3918C9.71567 18.5251 6.23229 18.5334 4.09896 16.3918C1.96563 14.2501 1.96563 10.7751 4.10729 8.6334Z" fill="#707070"/>
</svg>
