<?xml version="1.0" encoding="UTF-8"?>
<svg id="Layer_2" data-name="Layer 2" xmlns="http://www.w3.org/2000/svg" viewBox="0 0 65.56 77.65">
  <defs>
    <style>
      .cls-1 {
        fill: #614f3f;
        stroke: #614f3f;
        stroke-miterlimit: 10;
      }
    </style>
  </defs>
  <g id="Layer_1-2" data-name="Layer 1">
    <path class="cls-1" d="M26.37,2.16c4.54-2.42,10.5-2.26,14.82.97,4.16,3.11,4.98,7.7,5.15,8.8,1.77-.03,4.35.21,6.98,1.58.55.29,1.05.6,1.5.91,0,0,1.58,1.12,2.82,2.74,4.16,5.44,6.7,38.57,6.7,38.57.75,9.74,1.47,12.56-.87,15.18-3.22,3.61-10.18,4.68-16.65,5.43-5.37.63-14.7,1.4-27.69.04-9.78-1.03-12.86-2.38-15.12-4.77-1.92-2.04-3.15-4.95-3.47-9.14C.06,56.18,3.95,26.11,6.25,20.34c2.29-5.74,7.21-7.66,13.03-8.41.16-.83,1.39-6.73,7.09-9.77ZM25.08,12.05h15.43v-.97c-3.5-6.82-11.92-6.77-15.43-.03v.99ZM41.25,17.9h-16.88c.93,3.32.38,6.18-1.25,7.1-.67.38-1.82.6-2.65.1-.33-.2-.81-.64-1.22-2.87-.19-1.04-.38-2.51-.33-4.34-1.37-.03-3.43.09-5.18,1.35-2.73,1.95-3.41,5.77-4.11,9.75-1.27,7.16-2.4,16.47-3.11,23.75-.58,6-2.34,15.43,5.43,17.08,6.89,1.46,35.4,1.49,42.15-.12,1.57-.38,3.7-1.49,4.43-2.96,2.75-5.54-2.01-38.48-4.09-43.97-1.39-3.64-3.76-4.7-7.69-4.88.03,1.8.37,6.59-1.84,7.23-5.13.68-3.38-3.89-3.62-7.23Z"/>
  </g>
</svg>