<svg width="69" height="68" viewBox="0 0 69 68" fill="none" xmlns="http://www.w3.org/2000/svg">
<path d="M36.85 25C37.82 25.01 38.61 25.5094 39.07 26.4084C39.1887 26.6457 39.3544 26.9922 39.5278 27.3577L39.7372 27.7996L39.84 28.0166L39.94 28.2364C39.98 28.3063 40.05 28.3563 40.14 28.3563C42.54 28.3563 44.5 30.3141 44.5 32.7114V38.6448C44.5 41.0422 42.54 43 40.14 43H28.86C26.45 43 24.5 41.0422 24.5 38.6448V32.7114C24.5 30.3141 26.45 28.3563 28.86 28.3563C28.94 28.3563 29.02 28.3163 29.05 28.2364L29.11 28.1165C29.39 27.5272 29.73 26.808 29.93 26.4084C30.39 25.5094 31.17 25.01 32.14 25H36.85ZM34.5 31.4029C33.45 31.4029 32.46 31.8124 31.71 32.5616C30.97 33.3108 30.56 34.2897 30.57 35.3285C30.57 36.3774 30.98 37.3563 31.72 38.1054C32.47 38.8446 33.45 39.2542 34.5 39.2542C35.58 39.2542 36.56 38.8147 37.27 38.1054C37.98 37.3962 38.42 36.4173 38.43 35.3285C38.43 34.2897 38.02 33.3008 37.28 32.5516C36.54 31.8124 35.55 31.4029 34.5 31.4029ZM34.5 32.9012C35.15 32.9012 35.76 33.1509 36.22 33.6104C36.68 34.0699 36.93 34.6792 36.93 35.3285C36.92 36.667 35.84 37.7558 34.5 37.7558C33.85 37.7558 33.24 37.5061 32.78 37.0466C32.32 36.5871 32.07 35.9778 32.07 35.3285V35.3185C32.06 34.6892 32.31 34.0799 32.77 33.6204C33.24 33.1509 33.85 32.9012 34.5 32.9012ZM40.11 31.1632C39.61 31.1632 39.21 31.5727 39.21 32.0721C39.21 32.5716 39.61 32.9711 40.11 32.9711C40.61 32.9711 41.02 32.5716 41.02 32.0721C41.02 31.5727 40.61 31.1632 40.11 31.1632Z" fill="#A0A0A0"/>
<rect x="1" y="0.5" width="67" height="67" rx="33.5" stroke="#EBEBEB"/>
</svg>
