<svg width="17" height="17" viewBox="0 0 17 17" fill="none" xmlns="http://www.w3.org/2000/svg">
<path d="M8.49992 15.6673C4.54659 15.6673 1.33325 12.454 1.33325 8.50065C1.33325 4.54732 4.54659 1.33398 8.49992 1.33398C12.4533 1.33398 15.6666 4.54732 15.6666 8.50065C15.6666 12.454 12.4533 15.6673 8.49992 15.6673ZM8.49992 2.33398C5.09992 2.33398 2.33325 5.10065 2.33325 8.50065C2.33325 11.9007 5.09992 14.6673 8.49992 14.6673C11.8999 14.6673 14.6666 11.9007 14.6666 8.50065C14.6666 5.10065 11.8999 2.33398 8.49992 2.33398Z" fill="black"/>
<path d="M10.9731 11.1192C10.8864 11.1192 10.7998 11.0992 10.7198 11.0459L8.6531 9.81252C8.13977 9.50585 7.75977 8.83252 7.75977 8.23919V5.50586C7.75977 5.23253 7.98643 5.00586 8.25977 5.00586C8.5331 5.00586 8.75977 5.23253 8.75977 5.50586V8.23919C8.75977 8.47919 8.95977 8.83252 9.16643 8.95252L11.2331 10.1859C11.4731 10.3259 11.5464 10.6325 11.4064 10.8725C11.3064 11.0325 11.1398 11.1192 10.9731 11.1192Z" fill="black"/>
</svg>
