<svg width="28" height="28" viewBox="0 0 28 28" fill="none" xmlns="http://www.w3.org/2000/svg">
<path d="M10.6975 18.1768C10.4758 18.1768 10.2542 18.0952 10.0792 17.9202C9.74086 17.5818 9.74086 17.0218 10.0792 16.6835L16.6825 10.0802C17.0209 9.74183 17.5809 9.74183 17.9192 10.0802C18.2575 10.4185 18.2575 10.9785 17.9192 11.3168L11.3158 17.9202C11.1525 18.0952 10.9192 18.1768 10.6975 18.1768Z" fill="#434343"/>
<path d="M17.3009 18.1768C17.0792 18.1768 16.8575 18.0952 16.6825 17.9202L10.0792 11.3168C9.74086 10.9785 9.74086 10.4185 10.0792 10.0802C10.4175 9.74183 10.9775 9.74183 11.3158 10.0802L17.9192 16.6835C18.2575 17.0218 18.2575 17.5818 17.9192 17.9202C17.7442 18.0952 17.5225 18.1768 17.3009 18.1768Z" fill="#434343"/>
</svg>
