<svg width="16" height="16" viewBox="0 0 16 16" fill="none" xmlns="http://www.w3.org/2000/svg">
<path stroke="white" d="M13.9998 4.48633C13.9865 4.48633 13.9665 4.48633 13.9465 4.48633C10.4198 4.13299 6.89984 3.99966 3.41315 4.35299L2.05315 4.48633C1.77315 4.51299 1.52649 4.31299 1.49982 4.03299C1.47315 3.75299 1.67316 3.51299 1.94649 3.48633L3.30649 3.35299C6.85318 2.99299 10.4465 3.13299 14.0465 3.48633C14.3198 3.51299 14.5198 3.75966 14.4932 4.03299C14.4732 4.29299 14.2532 4.48633 13.9998 4.48633Z" fill="#FF3B30"/>
<path stroke="white" d="M5.66712 3.81301C5.64045 3.81301 5.61379 3.81301 5.58045 3.80634C5.31379 3.75967 5.12712 3.49967 5.17379 3.23301L5.32045 2.35967C5.42712 1.71967 5.57379 0.833008 7.12709 0.833008H8.87376C10.4338 0.833008 10.5804 1.75301 10.6804 2.36634L10.8271 3.23301C10.8738 3.50634 10.6871 3.76634 10.4204 3.80634C10.1471 3.85301 9.88709 3.66634 9.84709 3.39967L9.70043 2.53301C9.60709 1.95301 9.58709 1.83967 8.88043 1.83967H7.13376C6.42712 1.83967 6.41379 1.93301 6.31379 2.52634L6.16045 3.39301C6.12045 3.63967 5.90712 3.81301 5.66712 3.81301Z" fill="#FF3B30"/>
<path stroke="white" d="M10.1402 15.1667H5.86022C3.53355 15.1667 3.44022 13.8801 3.36688 12.8401L2.93355 6.12671C2.91355 5.85338 3.12688 5.61338 3.40022 5.59338C3.68022 5.58005 3.91355 5.78672 3.93355 6.06005L4.36688 12.7734C4.44022 13.7867 4.46688 14.1667 5.86022 14.1667H10.1402C11.5402 14.1667 11.5669 13.7867 11.6336 12.7734L12.0669 6.06005C12.0869 5.78672 12.3269 5.58005 12.6002 5.59338C12.8736 5.61338 13.0869 5.84671 13.0669 6.12671L12.6336 12.8401C12.5602 13.8801 12.4669 15.1667 10.1402 15.1667Z" fill="#FF3B30"/>
<path stroke="white" d="M9.10673 11.5H6.88673C6.61339 11.5 6.38672 11.2733 6.38672 11C6.38672 10.7267 6.61339 10.5 6.88673 10.5H9.10673C9.38007 10.5 9.60673 10.7267 9.60673 11C9.60673 11.2733 9.38007 11.5 9.10673 11.5Z" fill="#FF3B30"/>
<path stroke="white" d="M9.66671 8.83301H6.33337C6.06004 8.83301 5.83337 8.60634 5.83337 8.33301C5.83337 8.05967 6.06004 7.83301 6.33337 7.83301H9.66671C9.94004 7.83301 10.1667 8.05967 10.1667 8.33301C10.1667 8.60634 9.94004 8.83301 9.66671 8.83301Z" fill="#FF3B30"/>
</svg>
