<svg width="16" height="16" viewBox="0 0 16 16" fill="none" xmlns="http://www.w3.org/2000/svg">
<path stroke="white" d="M3.69332 13.0137C3.28666 13.0137 2.90666 12.8737 2.63332 12.6137C2.28666 12.287 2.11999 11.7937 2.17999 11.2603L2.42666 9.10033C2.47332 8.69366 2.71999 8.15366 3.00666 7.86033L8.48 2.06703C9.84666 0.620358 11.2733 0.580358 12.72 1.94703C14.1667 3.31369 14.2067 4.74036 12.84 6.18703L7.36666 11.9803C7.08666 12.2803 6.56666 12.5603 6.15999 12.6271L4.01332 12.9937C3.89999 13.0003 3.79999 13.0137 3.69332 13.0137ZM10.62 1.94036C10.1067 1.94036 9.66 2.26036 9.20666 2.74036L3.73332 8.54039C3.59999 8.68039 3.44666 9.01373 3.41999 9.20706L3.17332 11.367C3.14666 11.587 3.19999 11.767 3.31999 11.8803C3.43999 11.9937 3.61999 12.0337 3.83999 12.0003L5.98666 11.6337C6.17999 11.6004 6.49999 11.427 6.63332 11.287L12.1067 5.49369C12.9333 4.61369 13.2333 3.80036 12.0267 2.66703C11.4933 2.15369 11.0333 1.94036 10.62 1.94036Z" fill="#FF9500"/>
<path stroke="white" d="M11.5602 7.30019C11.5469 7.30019 11.5269 7.30019 11.5135 7.30019C9.43354 7.09352 7.76021 5.51356 7.44021 3.44689C7.40021 3.17356 7.58688 2.92023 7.86021 2.87356C8.13354 2.83356 8.38688 3.02022 8.43354 3.29356C8.68688 4.90689 9.99354 6.14689 11.6202 6.30689C11.8935 6.33356 12.0935 6.58022 12.0669 6.85352C12.0335 7.10686 11.8135 7.30019 11.5602 7.30019Z" fill="#FF9500"/>
<path stroke="white" d="M14 15.167H2C1.72667 15.167 1.5 14.9403 1.5 14.667C1.5 14.3937 1.72667 14.167 2 14.167H14C14.2733 14.167 14.5 14.3937 14.5 14.667C14.5 14.9403 14.2733 15.167 14 15.167Z" fill="#FF9500"/>
</svg>
