<svg width="16" height="17" viewBox="0 0 16 17" fill="none" xmlns="http://www.w3.org/2000/svg">
<path d="M10.1737 15.3332H5.82702C2.55369 15.3332 1.15369 13.9332 1.15369 10.6598V10.5732C1.15369 7.61317 2.32035 6.18652 4.93369 5.93985C5.20035 5.91985 5.45369 6.11985 5.48035 6.39319C5.50702 6.66652 5.30702 6.91319 5.02702 6.93985C2.93369 7.13319 2.15369 8.11983 2.15369 10.5798V10.6665C2.15369 13.3798 3.11369 14.3398 5.82702 14.3398H10.1737C12.887 14.3398 13.847 13.3798 13.847 10.6665V10.5798C13.847 8.1065 13.0537 7.11985 10.9204 6.93985C10.647 6.91319 10.4404 6.67319 10.467 6.39985C10.4937 6.12652 10.727 5.91985 11.007 5.94652C13.6604 6.17319 14.847 7.6065 14.847 10.5865V10.6732C14.847 13.9332 13.447 15.3332 10.1737 15.3332Z" fill="white"/>
<path d="M8 10.9997C7.72667 10.9997 7.5 10.7731 7.5 10.4997V2.91309C7.5 2.63975 7.72667 2.41309 8 2.41309C8.27333 2.41309 8.5 2.63975 8.5 2.91309V10.4997C8.5 10.7731 8.27333 10.9997 8 10.9997Z" fill="white"/>
<path d="M10.2332 4.89964C10.1065 4.89964 9.97983 4.85297 9.87983 4.75297L7.99983 2.87297L6.11986 4.75297C5.92652 4.9463 5.60652 4.9463 5.41319 4.75297C5.21986 4.55964 5.21986 4.23964 5.41319 4.0463L7.6465 1.81297C7.83983 1.61964 8.15983 1.61964 8.35316 1.81297L10.5865 4.0463C10.7798 4.23964 10.7798 4.55964 10.5865 4.75297C10.4932 4.85297 10.3598 4.89964 10.2332 4.89964Z" fill="white"/>
</svg>
