<svg width="16" height="17" viewBox="0 0 16 17" fill="none" xmlns="http://www.w3.org/2000/svg">
<path d="M9.20012 7.79993C9.07345 7.79993 8.94678 7.75327 8.84678 7.65327C8.65345 7.45994 8.65345 7.13996 8.84678 6.94663L14.3134 1.47996C14.5068 1.28663 14.8268 1.28663 15.0201 1.47996C15.2134 1.67329 15.2134 1.99329 15.0201 2.18663L9.55345 7.65327C9.46012 7.7466 9.33345 7.79993 9.20012 7.79993Z" fill="#604f3f"/>
<path d="M11.8867 8.33327H8.66669C8.39335 8.33327 8.16669 8.1066 8.16669 7.83327V4.61328C8.16669 4.33995 8.39335 4.11328 8.66669 4.11328C8.94002 4.11328 9.16669 4.33995 9.16669 4.61328V7.33327H11.8867C12.16 7.33327 12.3867 7.55993 12.3867 7.83327C12.3867 8.1066 12.16 8.33327 11.8867 8.33327Z" fill="#604f3f"/>
<path d="M9.99998 15.6663H5.99998C2.37998 15.6663 0.833313 14.1197 0.833313 10.4997V6.49967C0.833313 2.87967 2.37998 1.33301 5.99998 1.33301H7.33331C7.60665 1.33301 7.83331 1.55967 7.83331 1.83301C7.83331 2.10634 7.60665 2.33301 7.33331 2.33301H5.99998C2.92665 2.33301 1.83331 3.42634 1.83331 6.49967V10.4997C1.83331 13.573 2.92665 14.6663 5.99998 14.6663H9.99998C13.0733 14.6663 14.1666 13.573 14.1666 10.4997V9.16634C14.1666 8.89301 14.3933 8.66634 14.6666 8.66634C14.94 8.66634 15.1666 8.89301 15.1666 9.16634V10.4997C15.1666 14.1197 13.62 15.6663 9.99998 15.6663Z" fill="#604f3f"/>
</svg>
