<svg
width="89"
height="30"
viewBox="0 0 89 30"
fill="none"
xmlns="http://www.w3.org/2000/svg"
>
<rect
    x="0.5"
    y="0.5"
    width="88"
    height="29"
    rx="14.5"
    fill="#F0FBF3"
/>
<rect
    x="0.5"
    y="0.5"
    width="88"
    height="29"
    rx="14.5"
    stroke="#BBEDC7"
/>
<path
    d="M18.1172 20.6484C18.8594 20.6484 19.2969 20.1953 19.2969 19.4219V10.3047C19.2969 9.52344 18.8594 9.07031 18.1172 9.07031C17.375 9.07031 16.9375 9.52344 16.9375 10.3047V19.4219C16.9375 20.1953 17.375 20.6484 18.1172 20.6484ZM21.7972 20.6641C22.4691 20.6641 22.9378 20.2578 22.9378 19.4766V15.6953C22.9378 14.6094 23.5863 13.8594 24.6097 13.8594C25.6331 13.8594 26.1488 14.4844 26.1488 15.5781V19.4766C26.1488 20.2578 26.6175 20.6641 27.2894 20.6641C27.9534 20.6641 28.43 20.2578 28.43 19.4766V15.1016C28.43 13.1406 27.3831 11.9688 25.5238 11.9688C24.2347 11.9688 23.3909 12.5391 22.9456 13.5781H22.8988V13.1094C22.8988 12.3906 22.4456 11.9531 21.7581 11.9531C21.0706 11.9531 20.6566 12.3906 20.6566 13.1016V19.4766C20.6566 20.2578 21.1331 20.6641 21.7972 20.6641ZM36.7275 20.6875C39.54 20.6875 41.2666 19.2969 41.2666 17.0938C41.2666 15.3828 40.2353 14.4219 37.8447 13.9453L36.6572 13.7031C35.3212 13.4375 34.7822 13.0078 34.7822 12.3125C34.7822 11.4844 35.5556 10.9375 36.7197 10.9375C37.6884 10.9375 38.415 11.2891 38.79 12.1406C39.0556 12.625 39.3837 12.8359 39.915 12.8359C40.5166 12.8359 40.9228 12.4531 40.9228 11.8906C40.9228 11.6875 40.8916 11.5234 40.8369 11.3672C40.3369 9.89844 38.7822 9.03125 36.7197 9.03125C34.2119 9.03125 32.415 10.3984 32.415 12.4609C32.415 14.1406 33.5166 15.2188 35.7666 15.6641L36.9619 15.8984C38.3759 16.1875 38.9072 16.6094 38.9072 17.3516C38.9072 18.1797 38.0478 18.7891 36.7822 18.7891C35.7041 18.7891 34.8212 18.3984 34.4541 17.5391C34.1728 17.0391 33.8525 16.8516 33.3681 16.8516C32.7587 16.8516 32.3291 17.2656 32.3291 17.8906C32.3291 18.1016 32.3759 18.3203 32.4541 18.5234C32.9072 19.7578 34.3994 20.6875 36.7275 20.6875ZM42.8059 18.3594C42.8059 19.8359 43.5794 20.5938 45.1028 20.5938H45.1809C46.1419 20.5938 46.7981 20.25 46.7981 19.5781C46.7981 19.0469 46.4934 18.8125 45.9309 18.75L45.7825 18.7344C45.2903 18.6953 45.0872 18.4453 45.0872 17.8516V13.8438H45.8919C46.4309 13.8438 46.7669 13.5078 46.7669 12.9844C46.7669 12.4609 46.4309 12.125 45.8919 12.125H45.0872V11.1953C45.0872 10.4609 44.6575 10.0078 43.9466 10.0078C43.2356 10.0078 42.8059 10.4609 42.8059 11.1953V12.125H42.3684C41.8294 12.125 41.4856 12.4531 41.4856 12.9844C41.4856 13.5156 41.8294 13.8438 42.3684 13.8438H42.8059V18.3594ZM51.2828 20.6797C53.8141 20.6797 55.4312 19.0625 55.4312 16.3047C55.4312 13.5859 53.7906 11.9453 51.2828 11.9453C48.775 11.9453 47.1344 13.5938 47.1344 16.3047C47.1344 19.0547 48.7516 20.6797 51.2828 20.6797ZM51.2828 18.9375C50.1578 18.9375 49.4469 17.9922 49.4469 16.3125C49.4469 14.6484 50.1734 13.6875 51.2828 13.6875C52.3922 13.6875 53.1109 14.6484 53.1109 16.3125C53.1109 17.9922 52.4 18.9375 51.2828 18.9375ZM60.1113 20.6797C61.7128 20.6797 63.1425 19.8828 63.6425 18.7422C63.7441 18.5156 63.7909 18.3281 63.7909 18.1484C63.7909 17.5859 63.3613 17.2344 62.83 17.2344C62.3456 17.2344 62.0956 17.4297 61.7909 17.9062C61.4394 18.5 60.9472 18.8906 60.1503 18.8906C59.0097 18.8906 58.2988 17.9531 58.2988 16.3047C58.2988 14.6875 59.0097 13.7344 60.1659 13.7344C60.8925 13.7344 61.4003 14.0703 61.8144 14.8047C62.0488 15.2188 62.3222 15.3984 62.7753 15.3984C63.3144 15.3984 63.7519 15.0703 63.7519 14.5078C63.7519 14.3438 63.705 14.1406 63.6269 13.9453C63.1738 12.7578 61.7753 11.9453 60.0956 11.9453C57.58 11.9453 55.9863 13.6328 55.9863 16.3125C55.9863 19.0234 57.5878 20.6797 60.1113 20.6797ZM65.885 20.6641C66.5569 20.6641 67.0256 20.2578 67.0256 19.4766V17.7812L67.7522 17.1094L69.9006 19.9531C70.26 20.4922 70.5334 20.6641 71.0178 20.6641C71.6584 20.6641 72.1037 20.2422 72.1037 19.6328C72.1037 19.3359 72.0334 19.1328 71.7834 18.7969L69.4475 15.8203L71.5803 13.8047C71.9084 13.5 72.01 13.2891 72.01 12.9453C72.01 12.3828 71.5803 11.9531 70.9944 11.9531C70.6506 11.9531 70.3928 12.0859 70.0881 12.4062L67.0569 15.4453H67.0256V10.25C67.0256 9.46875 66.5569 9.05469 65.885 9.05469C65.2209 9.05469 64.7444 9.46875 64.7444 10.25V19.4766C64.7444 20.2578 65.2209 20.6641 65.885 20.6641Z"
    fill="#34C759"
/>
</svg>