<svg width="16" height="17" viewBox="0 0 16 17" fill="none" xmlns="http://www.w3.org/2000/svg">
<path d="M8.00068 9.94628C6.58065 9.94628 5.42065 8.79294 5.42065 7.36628C5.42065 5.93964 6.58065 4.79297 8.00068 4.79297C9.42068 4.79297 10.5807 5.9463 10.5807 7.37294C10.5807 8.79961 9.42068 9.94628 8.00068 9.94628ZM8.00068 5.79297C7.13401 5.79297 6.42065 6.49964 6.42065 7.37294C6.42065 8.24628 7.12735 8.95294 8.00068 8.95294C8.87401 8.95294 9.58068 8.24628 9.58068 7.37294C9.58068 6.49964 8.86735 5.79297 8.00068 5.79297Z" fill="#5A5A5A" stroke="#5A5A5A" stroke-width="0.5"/>
<path d="M7.99988 15.673C7.01321 15.673 6.01987 15.2997 5.24654 14.5597C3.27987 12.6663 1.10654 9.64634 1.92654 6.05301C2.66654 2.79301 5.51321 1.33301 7.99988 1.33301C7.99988 1.33301 7.99988 1.33301 8.00655 1.33301C10.4932 1.33301 13.3399 2.79301 14.0799 6.05967C14.8932 9.65301 12.7199 12.6663 10.7532 14.5597C9.97988 15.2997 8.98655 15.673 7.99988 15.673ZM7.99988 2.33301C6.05987 2.33301 3.56654 3.36634 2.90654 6.27301C2.18654 9.41301 4.15987 12.1197 5.94654 13.833C7.09988 14.9463 8.90655 14.9463 10.0599 13.833C11.8399 12.1197 13.8132 9.41301 13.1065 6.27301C12.4399 3.36634 9.93988 2.33301 7.99988 2.33301Z" fill="#5A5A5A" stroke="#5A5A5A" stroke-width="0.5"/>
</svg>
