<svg width="24" height="25" viewBox="0 0 24 25" fill="none" xmlns="http://www.w3.org/2000/svg">
<path d="M19.3399 14.99L18.3399 13.33C18.1299 12.96 17.9399 12.26 17.9399 11.85V9.32C17.9399 6.97 16.5599 4.94 14.5699 3.99C14.0499 3.07 13.0899 2.5 11.9899 2.5C10.8999 2.5 9.91994 3.09 9.39994 4.02C7.44994 4.99 6.09994 7 6.09994 9.32V11.85C6.09994 12.26 5.90994 12.96 5.69994 13.32L4.68994 14.99C4.28994 15.66 4.19994 16.4 4.44994 17.08C4.68994 17.75 5.25994 18.27 5.99994 18.52C7.93994 19.18 9.97994 19.5 12.0199 19.5C14.0599 19.5 16.0999 19.18 18.0399 18.53C18.7399 18.3 19.2799 17.77 19.5399 17.08C19.7999 16.39 19.7299 15.63 19.3399 14.99Z" fill="#A0A0A0"/>
<path d="M14.8297 20.51C14.4097 21.67 13.2997 22.5 11.9997 22.5C11.2097 22.5 10.4297 22.18 9.87969 21.61C9.55969 21.31 9.31969 20.91 9.17969 20.5C9.30969 20.52 9.43969 20.53 9.57969 20.55C9.80969 20.58 10.0497 20.61 10.2897 20.63C10.8597 20.68 11.4397 20.71 12.0197 20.71C12.5897 20.71 13.1597 20.68 13.7197 20.63C13.9297 20.61 14.1397 20.6 14.3397 20.57C14.4997 20.55 14.6597 20.53 14.8297 20.51Z" fill="#A0A0A0"/>
</svg>
