<svg width="130" height="30" viewBox="0 0 130 30" fill="none" xmlns="http://www.w3.org/2000/svg">
<rect x="0.5" y="0.5" width="129" height="29" rx="14.5" fill="#FFF1F0"/>
<rect x="0.5" y="0.5" width="129" height="29" rx="14.5" stroke="#FFBEBA"/>
<path d="M22.0234 20.6875C25.3594 20.6875 27.4609 18.4531 27.4609 14.8672C27.4609 11.2734 25.3594 9.03125 22.0234 9.03125C18.6797 9.03125 16.5859 11.2734 16.5859 14.8672C16.5859 18.4531 18.6797 20.6875 22.0234 20.6875ZM22.0234 18.7188C20.1719 18.7188 18.9922 17.2266 18.9922 14.8672C18.9922 12.5 20.1797 11 22.0234 11C23.8672 11 25.0469 12.5 25.0469 14.8672C25.0469 17.2266 23.8672 18.7188 22.0234 18.7188ZM31.4456 20.6562C32.7113 20.6562 33.5394 20.0469 33.9534 18.9922H34.0003V19.5078C34.0003 20.2656 34.4456 20.6641 35.1019 20.6641C35.7581 20.6641 36.2034 20.2656 36.2034 19.5078V13.1484C36.2034 12.3672 35.7347 11.9531 35.0628 11.9531C34.3988 11.9531 33.9222 12.3672 33.9222 13.1484V16.9219C33.9222 18.0312 33.2894 18.7578 32.2738 18.7578C31.2659 18.7578 30.7113 18.1641 30.7113 17.0469V13.1484C30.7113 12.3672 30.2425 11.9531 29.5706 11.9531C28.9066 11.9531 28.43 12.3672 28.43 13.1484V17.5234C28.43 19.4766 29.6331 20.6562 31.4456 20.6562ZM37.9772 18.3594C37.9772 19.8359 38.7506 20.5938 40.2741 20.5938H40.3522C41.3131 20.5938 41.9694 20.25 41.9694 19.5781C41.9694 19.0469 41.6647 18.8125 41.1022 18.75L40.9538 18.7344C40.4616 18.6953 40.2584 18.4453 40.2584 17.8516V13.8438H41.0631C41.6022 13.8438 41.9381 13.5078 41.9381 12.9844C41.9381 12.4609 41.6022 12.125 41.0631 12.125H40.2584V11.1953C40.2584 10.4609 39.8288 10.0078 39.1178 10.0078C38.4069 10.0078 37.9772 10.4609 37.9772 11.1953V12.125H37.5397C37.0006 12.125 36.6569 12.4531 36.6569 12.9844C36.6569 13.5156 37.0006 13.8438 37.5397 13.8438H37.9772V18.3594ZM50.8684 20.6875C54.2044 20.6875 56.3059 18.4531 56.3059 14.8672C56.3059 11.2734 54.2044 9.03125 50.8684 9.03125C47.5247 9.03125 45.4309 11.2734 45.4309 14.8672C45.4309 18.4531 47.5247 20.6875 50.8684 20.6875ZM50.8684 18.7188C49.0169 18.7188 47.8372 17.2266 47.8372 14.8672C47.8372 12.5 49.0247 11 50.8684 11C52.7122 11 53.8919 12.5 53.8919 14.8672C53.8919 17.2266 52.7122 18.7188 50.8684 18.7188ZM59.0641 20.6641C59.7359 20.6641 60.2047 20.2656 60.2047 19.4766V13.8438H61.1109C61.5875 13.8438 61.9469 13.5391 61.9469 13C61.9469 12.4688 61.5875 12.1641 61.1109 12.1641H60.15V11.6328C60.15 11.0156 60.4313 10.7344 61.1344 10.7109C61.3063 10.7031 61.4469 10.6797 61.5719 10.6484C61.8766 10.5547 62.0328 10.3672 62.0328 10.0469C62.0328 9.50781 61.525 9.125 60.3141 9.125C58.7359 9.14062 57.9234 9.875 57.9234 11.5312V12.1641H57.4859C57.0094 12.1641 56.65 12.4688 56.65 13C56.65 13.5391 57.0094 13.8438 57.4859 13.8438H57.9234V19.4766C57.9234 20.2656 58.3844 20.6641 59.0641 20.6641ZM69.8694 20.6875C72.6819 20.6875 74.4084 19.2969 74.4084 17.0938C74.4084 15.3828 73.3772 14.4219 70.9866 13.9453L69.7991 13.7031C68.4631 13.4375 67.9241 13.0078 67.9241 12.3125C67.9241 11.4844 68.6975 10.9375 69.8616 10.9375C70.8303 10.9375 71.5569 11.2891 71.9319 12.1406C72.1975 12.625 72.5256 12.8359 73.0569 12.8359C73.6584 12.8359 74.0647 12.4531 74.0647 11.8906C74.0647 11.6875 74.0334 11.5234 73.9787 11.3672C73.4787 9.89844 71.9241 9.03125 69.8616 9.03125C67.3537 9.03125 65.5569 10.3984 65.5569 12.4609C65.5569 14.1406 66.6584 15.2188 68.9084 15.6641L70.1037 15.8984C71.5178 16.1875 72.0491 16.6094 72.0491 17.3516C72.0491 18.1797 71.1897 18.7891 69.9241 18.7891C68.8459 18.7891 67.9631 18.3984 67.5959 17.5391C67.3147 17.0391 66.9944 16.8516 66.51 16.8516C65.9006 16.8516 65.4709 17.2656 65.4709 17.8906C65.4709 18.1016 65.5178 18.3203 65.5959 18.5234C66.0491 19.7578 67.5412 20.6875 69.8694 20.6875ZM75.9478 18.3594C75.9478 19.8359 76.7212 20.5938 78.2447 20.5938H78.3228C79.2837 20.5938 79.94 20.25 79.94 19.5781C79.94 19.0469 79.6353 18.8125 79.0728 18.75L78.9244 18.7344C78.4322 18.6953 78.2291 18.4453 78.2291 17.8516V13.8438H79.0337C79.5728 13.8438 79.9087 13.5078 79.9087 12.9844C79.9087 12.4609 79.5728 12.125 79.0337 12.125H78.2291V11.1953C78.2291 10.4609 77.7994 10.0078 77.0884 10.0078C76.3775 10.0078 75.9478 10.4609 75.9478 11.1953V12.125H75.5103C74.9712 12.125 74.6275 12.4531 74.6275 12.9844C74.6275 13.5156 74.9712 13.8438 75.5103 13.8438H75.9478V18.3594ZM84.4247 20.6797C86.9559 20.6797 88.5731 19.0625 88.5731 16.3047C88.5731 13.5859 86.9325 11.9453 84.4247 11.9453C81.9169 11.9453 80.2762 13.5938 80.2762 16.3047C80.2762 19.0547 81.8934 20.6797 84.4247 20.6797ZM84.4247 18.9375C83.2997 18.9375 82.5887 17.9922 82.5887 16.3125C82.5887 14.6484 83.3153 13.6875 84.4247 13.6875C85.5341 13.6875 86.2528 14.6484 86.2528 16.3125C86.2528 17.9922 85.5419 18.9375 84.4247 18.9375ZM93.2531 20.6797C94.8547 20.6797 96.2844 19.8828 96.7844 18.7422C96.8859 18.5156 96.9328 18.3281 96.9328 18.1484C96.9328 17.5859 96.5031 17.2344 95.9719 17.2344C95.4875 17.2344 95.2375 17.4297 94.9328 17.9062C94.5813 18.5 94.0891 18.8906 93.2922 18.8906C92.1516 18.8906 91.4406 17.9531 91.4406 16.3047C91.4406 14.6875 92.1516 13.7344 93.3078 13.7344C94.0344 13.7344 94.5422 14.0703 94.9563 14.8047C95.1906 15.2188 95.4641 15.3984 95.9172 15.3984C96.4563 15.3984 96.8938 15.0703 96.8938 14.5078C96.8938 14.3438 96.8469 14.1406 96.7688 13.9453C96.3156 12.7578 94.9172 11.9453 93.2375 11.9453C90.7219 11.9453 89.1281 13.6328 89.1281 16.3125C89.1281 19.0234 90.7297 20.6797 93.2531 20.6797ZM99.0269 20.6641C99.6988 20.6641 100.168 20.2578 100.168 19.4766V17.7812L100.894 17.1094L103.043 19.9531C103.402 20.4922 103.675 20.6641 104.16 20.6641C104.8 20.6641 105.246 20.2422 105.246 19.6328C105.246 19.3359 105.175 19.1328 104.925 18.7969L102.589 15.8203L104.722 13.8047C105.05 13.5 105.152 13.2891 105.152 12.9453C105.152 12.3828 104.722 11.9531 104.136 11.9531C103.793 11.9531 103.535 12.0859 103.23 12.4062L100.199 15.4453H100.168V10.25C100.168 9.46875 99.6988 9.05469 99.0269 9.05469C98.3628 9.05469 97.8863 9.46875 97.8863 10.25V19.4766C97.8863 20.2578 98.3628 20.6641 99.0269 20.6641ZM110.762 16.8984C111.41 16.8984 111.754 16.5078 111.777 15.8438L111.895 10.4375C111.902 10.3594 111.902 10.2656 111.902 10.2031C111.902 9.48438 111.465 9.05469 110.77 9.05469C110.067 9.05469 109.621 9.48438 109.621 10.2031C109.621 10.2656 109.629 10.3594 109.629 10.4375L109.754 15.8438C109.77 16.5078 110.113 16.8984 110.762 16.8984ZM110.762 20.6953C111.473 20.6953 112.035 20.1562 112.035 19.4688C112.035 18.7812 111.473 18.2422 110.762 18.2422C110.051 18.2422 109.488 18.7812 109.488 19.4688C109.488 20.1562 110.051 20.6953 110.762 20.6953Z" fill="#FF3B30"/>
</svg>
