<svg width="83" height="35" viewBox="0 0 83 35" fill="none" xmlns="http://www.w3.org/2000/svg" xmlns:xlink="http://www.w3.org/1999/xlink">
<rect x="0.5" y="0.5" width="82" height="34" rx="17" fill="#FFF7ED"/>
<path d="M18.0703 23.1484C18.7734 23.1484 19.1953 22.7188 19.1953 21.9688V15.6172H19.2656L24.1562 22.4688C24.5156 22.9688 24.8281 23.1484 25.3359 23.1484C26.0781 23.1484 26.4922 22.7344 26.4922 22V12.7578C26.4922 12 26.0781 11.5703 25.3672 11.5703C24.6562 11.5703 24.2344 12 24.2344 12.7578V19.0703H24.1719L19.2969 12.2578C18.9375 11.7656 18.6094 11.5703 18.125 11.5703C17.375 11.5703 16.9375 12 16.9375 12.75V21.9688C16.9375 22.7188 17.3594 23.1484 18.0703 23.1484ZM31.7113 23.1797C33.3284 23.1797 34.6253 22.5703 35.18 21.5391C35.2816 21.3516 35.3363 21.1641 35.3363 20.9844C35.3363 20.4609 34.9378 20.1484 34.4456 20.1484C34.1488 20.1484 33.9456 20.2344 33.7034 20.4844C33.0863 21.2109 32.5394 21.4922 31.7034 21.4922C30.5472 21.4922 29.7972 20.6797 29.7972 19.4375V19.3359H34.5784C35.2113 19.3359 35.5706 18.9766 35.5706 18.3438C35.5706 16.0703 33.9769 14.4453 31.6019 14.4453C29.1253 14.4453 27.555 16.1562 27.555 18.8516C27.555 21.5625 29.0941 23.1797 31.7113 23.1797ZM29.8206 17.9375C29.8988 16.8672 30.6253 16.1328 31.6253 16.1328C32.6253 16.1328 33.3284 16.8438 33.3753 17.9375H29.8206ZM39.1959 23.1641C40.0084 23.1641 40.4616 22.7969 40.6569 21.9688L41.9225 17.0781H41.9694L43.2428 21.9531C43.4381 22.8047 43.8834 23.1641 44.7194 23.1641C45.5084 23.1641 45.9459 22.7891 46.1803 21.9609L47.8678 16.1172C47.9538 15.8203 47.9928 15.6328 47.9928 15.4219C47.9928 14.8516 47.5475 14.4531 46.9147 14.4531C46.3522 14.4531 45.985 14.7969 45.86 15.4062L44.61 20.8359H44.5631L43.2584 15.5C43.11 14.8203 42.6647 14.4531 41.985 14.4531C41.2897 14.4531 40.8444 14.8203 40.6959 15.5L39.3991 20.8359H39.3522L38.11 15.4219C37.9772 14.7969 37.61 14.4531 37.0397 14.4531C36.3991 14.4531 35.9381 14.8594 35.9381 15.4297C35.9381 15.6484 35.9772 15.8359 36.0631 16.1328L37.7506 21.9688C37.9928 22.7969 38.4069 23.1641 39.1959 23.1641Z" fill="#F2C94C"/>
<path d="M50.8138 24.12H66.8138V8.12H50.8138V24.12Z" fill="url(#pattern0)"/>
<rect x="0.5" y="0.5" width="82" height="34" rx="17" stroke="#FFDCAA"/>
</svg>
