<svg width="16" height="17" viewBox="0 0 16 17" fill="none" xmlns="http://www.w3.org/2000/svg">
<path d="M8.00008 8.99967C5.88675 8.99967 4.16675 7.27967 4.16675 5.16634C4.16675 3.05301 5.88675 1.33301 8.00008 1.33301C10.1134 1.33301 11.8334 3.05301 11.8334 5.16634C11.8334 7.27967 10.1134 8.99967 8.00008 8.99967ZM8.00008 2.33301C6.44008 2.33301 5.16675 3.60634 5.16675 5.16634C5.16675 6.72634 6.44008 7.99967 8.00008 7.99967C9.56008 7.99967 10.8334 6.72634 10.8334 5.16634C10.8334 3.60634 9.56008 2.33301 8.00008 2.33301Z" fill="#5A5A5A" stroke="#5A5A5A" stroke-width="0.5"/>
<path d="M13.7267 15.6667C13.4534 15.6667 13.2267 15.44 13.2267 15.1667C13.2267 12.8667 10.8801 11 8.00013 11C5.1201 11 2.77344 12.8667 2.77344 15.1667C2.77344 15.44 2.54677 15.6667 2.27344 15.6667C2.0001 15.6667 1.77344 15.44 1.77344 15.1667C1.77344 12.32 4.56676 10 8.00013 10C11.4335 10 14.2267 12.32 14.2267 15.1667C14.2267 15.44 14.0001 15.6667 13.7267 15.6667Z" fill="#5A5A5A" stroke="#5A5A5A" stroke-width="0.5"/>
</svg>
