<svg width="16" height="17" viewBox="0 0 16 17" fill="none" xmlns="http://www.w3.org/2000/svg">
<path d="M11.6333 15.6663C10.8799 15.6663 10.0866 15.4863 9.26659 15.1397C8.46659 14.7997 7.65992 14.333 6.87325 13.7663C6.09325 13.193 5.33992 12.553 4.62659 11.853C3.91992 11.1397 3.27992 10.3863 2.71325 9.61301C2.13992 8.81301 1.67992 8.01301 1.35325 7.23967C1.00659 6.41301 0.833252 5.61301 0.833252 4.85967C0.833252 4.33967 0.926585 3.84634 1.10659 3.38634C1.29325 2.91301 1.59325 2.47301 1.99992 2.09301C2.51325 1.58634 3.09992 1.33301 3.72659 1.33301C3.98659 1.33301 4.25325 1.39301 4.47992 1.49967C4.73992 1.61967 4.95992 1.79967 5.11992 2.03967L6.66659 4.21967C6.80659 4.41301 6.91325 4.59967 6.98659 4.78634C7.07325 4.98634 7.11992 5.18634 7.11992 5.37967C7.11992 5.63301 7.04659 5.87967 6.90659 6.11301C6.80659 6.29301 6.65325 6.48634 6.45992 6.67967L6.00659 7.15301C6.01325 7.17301 6.01992 7.18634 6.02659 7.19967C6.10659 7.33967 6.26659 7.57967 6.57325 7.93967C6.89992 8.31301 7.20659 8.65301 7.51325 8.96634C7.90659 9.35301 8.23325 9.65967 8.53992 9.91301C8.91992 10.233 9.16659 10.393 9.31325 10.4663L9.29992 10.4997L9.78659 10.0197C9.99325 9.81301 10.1933 9.65967 10.3866 9.55967C10.7533 9.33301 11.2199 9.29301 11.6866 9.48634C11.8599 9.55967 12.0466 9.65967 12.2466 9.79967L14.4599 11.373C14.7066 11.5397 14.8866 11.753 14.9933 12.0063C15.0933 12.2597 15.1399 12.493 15.1399 12.7263C15.1399 13.0463 15.0666 13.3663 14.9266 13.6663C14.7866 13.9663 14.6133 14.2263 14.3933 14.4663C14.0133 14.8863 13.5999 15.1863 13.1199 15.3797C12.6599 15.5663 12.1599 15.6663 11.6333 15.6663ZM3.72659 2.33301C3.35992 2.33301 3.01992 2.49301 2.69325 2.81301C2.38659 3.09967 2.17325 3.41301 2.03992 3.75301C1.89992 4.09967 1.83325 4.46634 1.83325 4.85967C1.83325 5.47967 1.97992 6.15301 2.27325 6.84634C2.57325 7.55301 2.99325 8.28634 3.52659 9.01967C4.05992 9.75301 4.66659 10.4663 5.33325 11.1397C5.99992 11.7997 6.71992 12.413 7.45992 12.953C8.17992 13.4797 8.91992 13.9063 9.65325 14.213C10.7933 14.6997 11.8599 14.813 12.7399 14.4463C13.0799 14.3063 13.3799 14.093 13.6533 13.7863C13.8066 13.6197 13.9266 13.4397 14.0266 13.2263C14.1066 13.0597 14.1466 12.8863 14.1466 12.713C14.1466 12.6063 14.1266 12.4997 14.0733 12.3797C14.0533 12.3397 14.0133 12.2663 13.8866 12.1797L11.6733 10.6063C11.5399 10.513 11.4199 10.4463 11.3066 10.3997C11.1599 10.3397 11.0999 10.2797 10.8733 10.4197C10.7399 10.4863 10.6199 10.5863 10.4866 10.7197L9.97992 11.2197C9.71992 11.473 9.31992 11.533 9.01325 11.4197L8.83325 11.3397C8.55992 11.193 8.23992 10.9663 7.88659 10.6663C7.56659 10.393 7.21992 10.073 6.79992 9.65967C6.47325 9.32634 6.14659 8.97301 5.80659 8.57967C5.49325 8.21301 5.26659 7.89967 5.12659 7.63967L5.04659 7.43967C5.00659 7.28634 4.99325 7.19967 4.99325 7.10634C4.99325 6.86634 5.07992 6.65301 5.24659 6.48634L5.74659 5.96634C5.87992 5.83301 5.97992 5.70634 6.04659 5.59301C6.09992 5.50634 6.11992 5.43301 6.11992 5.36634C6.11992 5.31301 6.09992 5.23301 6.06659 5.15301C6.01992 5.04634 5.94659 4.92634 5.85325 4.79967L4.30659 2.61301C4.23992 2.51967 4.15992 2.45301 4.05992 2.40634C3.95325 2.35967 3.83992 2.33301 3.72659 2.33301ZM9.29992 10.5063L9.19325 10.9597L9.37325 10.493C9.33992 10.4863 9.31325 10.493 9.29992 10.5063Z" fill="#5A5A5A" stroke="#5A5A5A" stroke-width="0.5"/>
</svg>
