<svg width="16" height="17" viewBox="0 0 16 17" fill="none" xmlns="http://www.w3.org/2000/svg">
<path d="M11.1667 5.66634H4.83337C4.56004 5.66634 4.33337 5.43967 4.33337 5.16634V3.83301C4.33337 2.12634 5.12671 1.33301 6.83337 1.33301H9.16671C10.8734 1.33301 11.6667 2.12634 11.6667 3.83301V5.16634C11.6667 5.43967 11.44 5.66634 11.1667 5.66634ZM5.33337 4.66634H10.6667V3.83301C10.6667 2.69967 10.3 2.33301 9.16671 2.33301H6.83337C5.70004 2.33301 5.33337 2.69967 5.33337 3.83301V4.66634Z" fill="#1F7735"/>
<path d="M8.66671 15.6667H7.33337C5.72004 15.6667 4.83337 14.78 4.83337 13.1667V10.5C4.83337 10.2267 5.06004 10 5.33337 10H10.6667C10.94 10 11.1667 10.2267 11.1667 10.5V13.1667C11.1667 14.78 10.28 15.6667 8.66671 15.6667ZM5.83337 11V13.1667C5.83337 14.22 6.28004 14.6667 7.33337 14.6667H8.66671C9.72004 14.6667 10.1667 14.22 10.1667 13.1667V11H5.83337Z" fill="#1F7735"/>
<path d="M12 13.0003H10.6667C10.3933 13.0003 10.1667 12.7737 10.1667 12.5003V11.0003H5.83333V12.5003C5.83333 12.7737 5.60667 13.0003 5.33333 13.0003H4C2.38667 13.0003 1.5 12.1137 1.5 10.5003V7.16699C1.5 5.55366 2.38667 4.66699 4 4.66699H12C13.6133 4.66699 14.5 5.55366 14.5 7.16699V10.5003C14.5 12.1137 13.6133 13.0003 12 13.0003ZM11.1667 12.0003H12C13.0533 12.0003 13.5 11.5537 13.5 10.5003V7.16699C13.5 6.11366 13.0533 5.66699 12 5.66699H4C2.94667 5.66699 2.5 6.11366 2.5 7.16699V10.5003C2.5 11.5537 2.94667 12.0003 4 12.0003H4.83333V10.5003C4.83333 10.227 5.06 10.0003 5.33333 10.0003H10.6667C10.94 10.0003 11.1667 10.227 11.1667 10.5003V12.0003Z" fill="#1F7735"/>
<path d="M11.3333 11H4.66663C4.39329 11 4.16663 10.7733 4.16663 10.5C4.16663 10.2267 4.39329 10 4.66663 10H11.3333C11.6066 10 11.8333 10.2267 11.8333 10.5C11.8333 10.7733 11.6066 11 11.3333 11Z" fill="#1F7735"/>
<path d="M6.66663 8.33301H4.66663C4.39329 8.33301 4.16663 8.10634 4.16663 7.83301C4.16663 7.55967 4.39329 7.33301 4.66663 7.33301H6.66663C6.93996 7.33301 7.16663 7.55967 7.16663 7.83301C7.16663 8.10634 6.93996 8.33301 6.66663 8.33301Z" fill="#1F7735"/>
</svg>
