<svg width="103" height="35" viewBox="0 0 103 35" fill="none" xmlns="http://www.w3.org/2000/svg">
<rect x="0.5" y="0.5" width="102" height="34" rx="17" fill="#FFF1F0"/>
<path d="M21.9609 23.1875C24.0938 23.1875 25.7734 22.2266 26.4766 20.6641C26.5938 20.3906 26.6562 20.1406 26.6562 19.875C26.6562 19.25 26.2188 18.8281 25.5547 18.8281C25.0547 18.8281 24.7578 19.0391 24.5156 19.5703C24.0078 20.7031 23.1172 21.2422 21.9297 21.2422C20.125 21.2422 18.9922 19.7578 18.9922 17.3516C18.9922 14.9766 20.1406 13.4844 21.9219 13.4844C23.0469 13.4844 23.9688 14.0625 24.4844 15.2109C24.7422 15.7578 25.0781 15.9922 25.6094 15.9922C26.2344 15.9922 26.6484 15.5938 26.6484 14.9766C26.6484 14.6953 26.5703 14.3906 26.4141 14.0938C25.6406 12.4688 24.0078 11.5312 21.8984 11.5312C18.6562 11.5312 16.5859 13.7266 16.5859 17.3594C16.5859 21 18.6172 23.1875 21.9609 23.1875ZM30.2581 23.1328C31.305 23.1328 32.3519 22.6094 32.8206 21.7188H32.8675V22.1484C32.9144 22.8203 33.3441 23.1641 33.9613 23.1641C34.6097 23.1641 35.0706 22.7734 35.0706 22.0156V17.2422C35.0706 15.5547 33.6722 14.4453 31.5238 14.4453C29.7894 14.4453 28.4456 15.0625 28.055 16.0625C27.9769 16.2344 27.9378 16.3984 27.9378 16.5781C27.9378 17.0938 28.3363 17.4531 28.8909 17.4531C29.2581 17.4531 29.5472 17.3125 29.7972 17.0312C30.305 16.375 30.7269 16.1484 31.4222 16.1484C32.2816 16.1484 32.8284 16.6016 32.8284 17.3828V17.9375L30.7191 18.0625C28.6253 18.1875 27.4534 19.0703 27.4534 20.5938C27.4534 22.1016 28.6644 23.1328 30.2581 23.1328ZM31.0081 21.4844C30.2425 21.4844 29.7269 21.0938 29.7269 20.4688C29.7269 19.875 30.2113 19.4922 31.0628 19.4297L32.8284 19.3203V19.9297C32.8284 20.8359 32.0081 21.4844 31.0081 21.4844ZM37.3678 23.1641C38.0397 23.1641 38.5084 22.7578 38.5084 21.9766V18.1953C38.5084 17.1094 39.1569 16.3594 40.1803 16.3594C41.2038 16.3594 41.7194 16.9844 41.7194 18.0781V21.9766C41.7194 22.7578 42.1881 23.1641 42.86 23.1641C43.5241 23.1641 44.0006 22.7578 44.0006 21.9766V17.6016C44.0006 15.6406 42.9538 14.4688 41.0944 14.4688C39.8053 14.4688 38.9616 15.0391 38.5163 16.0781H38.4694V15.6094C38.4694 14.8906 38.0163 14.4531 37.3288 14.4531C36.6413 14.4531 36.2272 14.8906 36.2272 15.6016V21.9766C36.2272 22.7578 36.7038 23.1641 37.3678 23.1641ZM48.9463 23.1797C50.5478 23.1797 51.9775 22.3828 52.4775 21.2422C52.5791 21.0156 52.6259 20.8281 52.6259 20.6484C52.6259 20.0859 52.1963 19.7344 51.665 19.7344C51.1806 19.7344 50.9306 19.9297 50.6259 20.4062C50.2744 21 49.7822 21.3906 48.9853 21.3906C47.8447 21.3906 47.1338 20.4531 47.1338 18.8047C47.1338 17.1875 47.8447 16.2344 49.0009 16.2344C49.7275 16.2344 50.2353 16.5703 50.6494 17.3047C50.8838 17.7188 51.1572 17.8984 51.6103 17.8984C52.1494 17.8984 52.5869 17.5703 52.5869 17.0078C52.5869 16.8438 52.54 16.6406 52.4619 16.4453C52.0088 15.2578 50.6103 14.4453 48.9306 14.4453C46.415 14.4453 44.8213 16.1328 44.8213 18.8125C44.8213 21.5234 46.4228 23.1797 48.9463 23.1797ZM57.3763 23.1797C58.9934 23.1797 60.2903 22.5703 60.845 21.5391C60.9466 21.3516 61.0013 21.1641 61.0013 20.9844C61.0013 20.4609 60.6028 20.1484 60.1106 20.1484C59.8138 20.1484 59.6106 20.2344 59.3684 20.4844C58.7513 21.2109 58.2044 21.4922 57.3684 21.4922C56.2122 21.4922 55.4622 20.6797 55.4622 19.4375V19.3359H60.2434C60.8763 19.3359 61.2356 18.9766 61.2356 18.3438C61.2356 16.0703 59.6419 14.4453 57.2669 14.4453C54.7903 14.4453 53.22 16.1562 53.22 18.8516C53.22 21.5625 54.7591 23.1797 57.3763 23.1797ZM55.4856 17.9375C55.5638 16.8672 56.2903 16.1328 57.2903 16.1328C58.2903 16.1328 58.9934 16.8438 59.0403 17.9375H55.4856ZM63.2906 23.1641C63.9625 23.1641 64.4313 22.7578 64.4313 21.9766V12.75C64.4313 11.9688 63.9625 11.5547 63.2906 11.5547C62.6266 11.5547 62.15 11.9688 62.15 12.75V21.9766C62.15 22.7578 62.6266 23.1641 63.2906 23.1641ZM66.8456 23.1641C67.5175 23.1641 67.9863 22.7578 67.9863 21.9766V12.75C67.9863 11.9688 67.5175 11.5547 66.8456 11.5547C66.1816 11.5547 65.705 11.9688 65.705 12.75V21.9766C65.705 22.7578 66.1816 23.1641 66.8456 23.1641ZM73.0569 23.1797C74.6741 23.1797 75.9709 22.5703 76.5256 21.5391C76.6272 21.3516 76.6819 21.1641 76.6819 20.9844C76.6819 20.4609 76.2834 20.1484 75.7912 20.1484C75.4944 20.1484 75.2912 20.2344 75.0491 20.4844C74.4319 21.2109 73.885 21.4922 73.0491 21.4922C71.8928 21.4922 71.1428 20.6797 71.1428 19.4375V19.3359H75.9241C76.5569 19.3359 76.9162 18.9766 76.9162 18.3438C76.9162 16.0703 75.3225 14.4453 72.9475 14.4453C70.4709 14.4453 68.9006 16.1562 68.9006 18.8516C68.9006 21.5625 70.4397 23.1797 73.0569 23.1797ZM71.1662 17.9375C71.2444 16.8672 71.9709 16.1328 72.9709 16.1328C73.9709 16.1328 74.6741 16.8438 74.7209 17.9375H71.1662ZM80.8853 23.1328C82.1744 23.1328 83.0962 22.4609 83.4634 21.5234H83.5025V22.0078C83.5025 22.7734 83.9947 23.1641 84.6509 23.1641C85.315 23.1641 85.7837 22.7656 85.7837 22.0078V12.75C85.7837 11.9688 85.315 11.5547 84.6431 11.5547C83.9791 11.5547 83.5025 11.9688 83.5025 12.75V16.0625H83.4556C83.0494 15.1328 82.1119 14.4922 80.9009 14.4922C78.7994 14.4922 77.4712 16.1406 77.4712 18.7969C77.4712 21.4766 78.7916 23.1328 80.8853 23.1328ZM81.6587 21.2969C80.5103 21.2969 79.8072 20.3516 79.8072 18.8125C79.8072 17.2812 80.5103 16.3203 81.6587 16.3203C82.7916 16.3203 83.5181 17.2891 83.5181 18.8125C83.5181 20.3438 82.7916 21.2969 81.6587 21.2969Z" fill="#FF3B30"/>
<rect x="0.5" y="0.5" width="102" height="34" rx="17" stroke="#FFBEBA"/>
</svg>
