<svg width="24" height="25" viewBox="0 0 24 25" fill="none" xmlns="http://www.w3.org/2000/svg">
<path d="M18.0693 9.00867L9.50929 4.72867C3.75929 1.84867 1.39929 4.20867 4.27929 9.95867L5.14929 11.6987C5.39929 12.2087 5.39929 12.7987 5.14929 13.3087L4.27929 15.0387C1.39929 20.7887 3.74929 23.1487 9.50929 20.2687L18.0693 15.9887C21.9093 14.0687 21.9093 10.9287 18.0693 9.00867ZM14.8393 13.2487H9.43929C9.02929 13.2487 8.68929 12.9087 8.68929 12.4987C8.68929 12.0887 9.02929 11.7487 9.43929 11.7487H14.8393C15.2493 11.7487 15.5893 12.0887 15.5893 12.4987C15.5893 12.9087 15.2493 13.2487 14.8393 13.2487Z" fill="#1F7735"/>
</svg>
