<svg
      id="Layer_1"
      data-name="Layer 1"
      xmlns="http://www.w3.org/2000/svg"
      className="me-5 icon pe-none"
      width="24"
      height="24"
      viewBox="0 0 24 24"
    >
      <path
        d="M21.86,8.55L11.4,.38c-.14-.11-.33-.11-.47,0L.45,8.54c-.09,.07-.15,.19-.15,.31v4.31c0,.15,.08,.28,.21,.35,.13,.06,.28,.05,.39-.04l1.74-1.37v9.52c0,.21,.19,.38,.4,.38H19.07c.21,0,.39-.17,.4-.38V11.95l1.93,1.51c.07,.05,.15,.08,.23,.08,.06,0,.11-.01,.16-.04,.13-.07,.21-.2,.21-.35v-4.31c0-.12-.05-.23-.15-.31ZM3.41,21.23V11.51l7.75-6.02,7.54,5.87v9.87H3.41ZM21.24,12.38L11.4,4.69c-.14-.11-.33-.11-.46,0L1.06,12.38v-3.34L11.16,1.17l10.07,7.87v3.34Z"
        fill="rgb(22, 22, 22)"
        stroke="rgb(22, 22, 22)"
        strokeMiterlimit="10"
        strokeWidth=".6"
      />
      <path
        d="M15.46,12.93c-.27-1.34-1.24-2.21-2.47-2.21-.59,0-1.22,.21-1.84,.61-.63-.42-1.25-.63-1.86-.63-1.24,0-2.2,.88-2.46,2.23-.36,1.89,.76,4.39,4.07,5.72,0,0,.01,0,.02,0,.07,.02,.15,.04,.22,.04,.08,0,.15-.01,.22-.04,0,0,.02,0,.02,0,3.31-1.35,4.43-3.85,4.07-5.72h0Zm-4.31,4.98c-2.87-1.17-3.86-3.27-3.56-4.84,.19-.99,.84-1.61,1.71-1.61,.51,0,1.07,.22,1.63,.64,.13,.1,.32,.1,.45,0,.56-.41,1.12-.62,1.62-.62,.86,0,1.52,.61,1.72,1.59,.41,2.15-1.49,3.97-3.56,4.84Z"
        fill="rgb(22, 22, 22)"
        stroke="rgb(22, 22, 22)"
        strokeMiterlimit="10"
        strokeWidth=".6"
      />
    </svg>