<svg width="17" height="17" viewBox="0 0 17 17" fill="none" xmlns="http://www.w3.org/2000/svg">
<path d="M8.49993 11.3866C6.90661 11.3866 5.61328 10.0933 5.61328 8.49993C5.61328 6.90661 6.90661 5.61328 8.49993 5.61328C10.0933 5.61328 11.3866 6.90661 11.3866 8.49993C11.3866 10.0933 10.0933 11.3866 8.49993 11.3866ZM8.49993 6.61328C7.45993 6.61328 6.61328 7.45993 6.61328 8.49993C6.61328 9.53993 7.45993 10.3866 8.49993 10.3866C9.53993 10.3866 10.3866 9.53993 10.3866 8.49993C10.3866 7.45993 9.53993 6.61328 8.49993 6.61328Z" fill="black"/>
<path d="M8.50011 14.5133C5.99343 14.5133 3.62676 13.0466 2.00009 10.5C1.29343 9.39998 1.29343 7.60665 2.00009 6.49997C3.63343 3.9533 6.00009 2.48663 8.50011 2.48663C11.0001 2.48663 13.3668 3.9533 14.9934 6.49997C15.7001 7.59998 15.7001 9.39331 14.9934 10.5C13.3668 13.0466 11.0001 14.5133 8.50011 14.5133ZM8.50011 3.48663C6.34676 3.48663 4.28676 4.77997 2.84676 7.03997C2.34676 7.81998 2.34676 9.17998 2.84676 9.95998C4.28676 12.22 6.34676 13.5133 8.50011 13.5133C10.6534 13.5133 12.7134 12.22 14.1534 9.95998C14.6534 9.17998 14.6534 7.81998 14.1534 7.03997C12.7134 4.77997 10.6534 3.48663 8.50011 3.48663Z" fill="black"/>
</svg>
