<svg width="16" height="16" viewBox="0 0 16 16" fill="none" xmlns="http://www.w3.org/2000/svg">
<path fill-rule="evenodd" clip-rule="evenodd" d="M8 2C6.64256 2 6.51423 4.36435 5.70608 5.19972C4.89792 6.03508 2.38547 5.07995 2.03639 6.56269C1.68805 8.04618 3.94824 8.54953 4.22691 9.82229C4.50705 11.095 3.12615 12.8833 4.30611 13.7732C5.48607 14.6624 6.75623 12.6498 8 12.6498C9.24376 12.6498 10.5139 14.6624 11.6939 13.7732C12.8738 12.8833 11.4937 11.095 11.7731 9.82229C12.0525 8.54953 14.3119 8.04618 13.9636 6.56269C13.6153 5.07995 11.1021 6.03508 10.2946 5.19972C9.4865 4.36435 9.35743 2 8 2Z" fill="#FFC252" stroke="#FFC252" stroke-width="1.5" stroke-linecap="round" stroke-linejoin="round"/>
</svg>
