<svg width="132" height="28" viewBox="0 0 165 35" fill="none" xmlns="http://www.w3.org/2000/svg">
<rect x="0.5" y="0.5" width="164" height="34" rx="17" fill="#FFF7ED"/>
<path d="M17.6875 23.1484C18.3125 23.1484 18.6641 22.8359 18.8828 22.0859L19.4766 20.3281H23.5469L24.1406 22.1094C24.3516 22.8438 24.7031 23.1484 25.3672 23.1484C26.0547 23.1484 26.5469 22.6875 26.5469 22.0391C26.5469 21.8047 26.5078 21.5938 26.3984 21.2891L23.3047 12.8984C22.9688 11.9766 22.4219 11.5703 21.5 11.5703C20.6094 11.5703 20.0547 11.9922 19.7266 12.9062L16.6484 21.2891C16.5469 21.5781 16.4922 21.8438 16.4922 22.0391C16.4922 22.7188 16.9531 23.1484 17.6875 23.1484ZM19.9922 18.5L21.4531 13.8828H21.5078L23 18.5H19.9922ZM29.5784 23.1641C30.3909 23.1641 30.8441 22.7969 31.0394 21.9688L32.305 17.0781H32.3519L33.6253 21.9531C33.8206 22.8047 34.2659 23.1641 35.1019 23.1641C35.8909 23.1641 36.3284 22.7891 36.5628 21.9609L38.2503 16.1172C38.3363 15.8203 38.3753 15.6328 38.3753 15.4219C38.3753 14.8516 37.93 14.4531 37.2972 14.4531C36.7347 14.4531 36.3675 14.7969 36.2425 15.4062L34.9925 20.8359H34.9456L33.6409 15.5C33.4925 14.8203 33.0472 14.4531 32.3675 14.4531C31.6722 14.4531 31.2269 14.8203 31.0784 15.5L29.7816 20.8359H29.7347L28.4925 15.4219C28.3597 14.7969 27.9925 14.4531 27.4222 14.4531C26.7816 14.4531 26.3206 14.8594 26.3206 15.4297C26.3206 15.6484 26.3597 15.8359 26.4456 16.1328L28.1331 21.9688C28.3753 22.7969 28.7894 23.1641 29.5784 23.1641ZM41.4381 23.1328C42.485 23.1328 43.5319 22.6094 44.0006 21.7188H44.0475V22.1484C44.0944 22.8203 44.5241 23.1641 45.1413 23.1641C45.7897 23.1641 46.2506 22.7734 46.2506 22.0156V17.2422C46.2506 15.5547 44.8522 14.4453 42.7038 14.4453C40.9694 14.4453 39.6256 15.0625 39.235 16.0625C39.1569 16.2344 39.1178 16.3984 39.1178 16.5781C39.1178 17.0938 39.5163 17.4531 40.0709 17.4531C40.4381 17.4531 40.7272 17.3125 40.9772 17.0312C41.485 16.375 41.9069 16.1484 42.6022 16.1484C43.4616 16.1484 44.0084 16.6016 44.0084 17.3828V17.9375L41.8991 18.0625C39.8053 18.1875 38.6334 19.0703 38.6334 20.5938C38.6334 22.1016 39.8444 23.1328 41.4381 23.1328ZM42.1881 21.4844C41.4225 21.4844 40.9069 21.0938 40.9069 20.4688C40.9069 19.875 41.3913 19.4922 42.2428 19.4297L44.0084 19.3203V19.9297C44.0084 20.8359 43.1881 21.4844 42.1881 21.4844ZM48.5869 13.5859C49.2744 13.5859 49.8056 13.0625 49.8056 12.4062C49.8056 11.7422 49.2744 11.2266 48.5869 11.2266C47.8994 11.2266 47.3681 11.7422 47.3681 12.4062C47.3681 13.0625 47.8994 13.5859 48.5869 13.5859ZM48.5869 23.1641C49.29 23.1641 49.7275 22.7188 49.7275 21.9766V15.6484C49.7275 14.9062 49.29 14.4531 48.5869 14.4531C47.8759 14.4531 47.4463 14.9062 47.4463 15.6484V21.9766C47.4463 22.7188 47.8759 23.1641 48.5869 23.1641ZM51.5403 20.8594C51.5403 22.3359 52.3138 23.0938 53.8372 23.0938H53.9153C54.8763 23.0938 55.5325 22.75 55.5325 22.0781C55.5325 21.5469 55.2278 21.3125 54.6653 21.25L54.5169 21.2344C54.0247 21.1953 53.8216 20.9453 53.8216 20.3516V16.3438H54.6263C55.1653 16.3438 55.5013 16.0078 55.5013 15.4844C55.5013 14.9609 55.1653 14.625 54.6263 14.625H53.8216V13.6953C53.8216 12.9609 53.3919 12.5078 52.6809 12.5078C51.97 12.5078 51.5403 12.9609 51.5403 13.6953V14.625H51.1028C50.5638 14.625 50.22 14.9531 50.22 15.4844C50.22 16.0156 50.5638 16.3438 51.1028 16.3438H51.5403V20.8594ZM57.4781 13.5859C58.1656 13.5859 58.6969 13.0625 58.6969 12.4062C58.6969 11.7422 58.1656 11.2266 57.4781 11.2266C56.7906 11.2266 56.2594 11.7422 56.2594 12.4062C56.2594 13.0625 56.7906 13.5859 57.4781 13.5859ZM57.4781 23.1641C58.1813 23.1641 58.6188 22.7188 58.6188 21.9766V15.6484C58.6188 14.9062 58.1813 14.4531 57.4781 14.4531C56.7672 14.4531 56.3375 14.9062 56.3375 15.6484V21.9766C56.3375 22.7188 56.7672 23.1641 57.4781 23.1641ZM60.9628 23.1641C61.6347 23.1641 62.1034 22.7578 62.1034 21.9766V18.1953C62.1034 17.1094 62.7519 16.3594 63.7753 16.3594C64.7988 16.3594 65.3144 16.9844 65.3144 18.0781V21.9766C65.3144 22.7578 65.7831 23.1641 66.455 23.1641C67.1191 23.1641 67.5956 22.7578 67.5956 21.9766V17.6016C67.5956 15.6406 66.5488 14.4688 64.6894 14.4688C63.4003 14.4688 62.5566 15.0391 62.1113 16.0781H62.0644V15.6094C62.0644 14.8906 61.6113 14.4531 60.9238 14.4531C60.2363 14.4531 59.8222 14.8906 59.8222 15.6016V21.9766C59.8222 22.7578 60.2988 23.1641 60.9628 23.1641ZM72.4631 26.1484C75.1584 26.1641 76.7366 24.8516 76.7366 22.6719V15.6094C76.7366 14.8359 76.26 14.4531 75.6037 14.4531C74.9475 14.4531 74.4553 14.8359 74.4553 15.6094V16.0703H74.4084C73.9709 15.125 73.0569 14.4922 71.8537 14.4922C69.6975 14.4922 68.4162 16.0469 68.4162 18.6719C68.4162 21.2266 69.7287 22.8203 71.8147 22.8203C73.0256 22.8203 74.0022 22.2188 74.3928 21.3203H74.4397V22.6562C74.4397 23.7031 73.7053 24.3906 72.4553 24.3828C71.6975 24.375 71.1037 24.0547 70.4866 23.4688C70.2287 23.2344 69.9944 23.1406 69.6975 23.1406C69.1272 23.1406 68.7678 23.5 68.7678 23.9766C68.7678 24.1875 68.8147 24.3984 68.9397 24.6094C69.4787 25.4922 70.7522 26.1406 72.4631 26.1484ZM72.5881 21.125C71.4553 21.125 70.7522 20.2266 70.7522 18.6953C70.7522 17.1797 71.4631 16.2266 72.5881 16.2266C73.7287 16.2266 74.4631 17.1953 74.4631 18.7031C74.4631 20.2188 73.7287 21.125 72.5881 21.125ZM82.5028 23.1641C83.1747 23.1641 83.6434 22.7656 83.6434 21.9766V16.3438H84.5497C85.0263 16.3438 85.3856 16.0391 85.3856 15.5C85.3856 14.9688 85.0263 14.6641 84.5497 14.6641H83.5888V14.1328C83.5888 13.5156 83.87 13.2344 84.5731 13.2109C84.745 13.2031 84.8856 13.1797 85.0106 13.1484C85.3153 13.0547 85.4716 12.8672 85.4716 12.5469C85.4716 12.0078 84.9638 11.625 83.7528 11.625C82.1747 11.6406 81.3622 12.375 81.3622 14.0312V14.6641H80.9247C80.4481 14.6641 80.0888 14.9688 80.0888 15.5C80.0888 16.0391 80.4481 16.3438 80.9247 16.3438H81.3622V21.9766C81.3622 22.7656 81.8231 23.1641 82.5028 23.1641ZM89.7453 23.1797C92.2766 23.1797 93.8938 21.5625 93.8938 18.8047C93.8938 16.0859 92.2531 14.4453 89.7453 14.4453C87.2375 14.4453 85.5969 16.0938 85.5969 18.8047C85.5969 21.5547 87.2141 23.1797 89.7453 23.1797ZM89.7453 21.4375C88.6203 21.4375 87.9094 20.4922 87.9094 18.8125C87.9094 17.1484 88.6359 16.1875 89.7453 16.1875C90.8547 16.1875 91.5734 17.1484 91.5734 18.8125C91.5734 20.4922 90.8625 21.4375 89.7453 21.4375ZM95.8941 23.1641C96.5894 23.1641 97.0347 22.7344 97.0347 21.9766V18.2578C97.0347 17.2656 97.4019 16.6797 98.4409 16.6641C98.8863 16.6562 99.2144 16.5547 99.4331 16.3672C99.6519 16.1797 99.7613 15.9062 99.7613 15.5469C99.7613 15.1562 99.6519 14.875 99.4331 14.7031C99.2691 14.5625 99.0269 14.4922 98.7222 14.4922C97.8863 14.4922 97.1988 15.1094 96.98 16.1484H96.9331V15.6016C96.9331 14.875 96.4956 14.4531 95.855 14.4531C95.1988 14.4531 94.7534 14.875 94.7534 15.6016V21.9766C94.7534 22.7344 95.2066 23.1641 95.8941 23.1641ZM104.059 23.1484C104.684 23.1484 105.035 22.8359 105.254 22.0859L105.848 20.3281H109.918L110.512 22.1094C110.723 22.8438 111.074 23.1484 111.738 23.1484C112.426 23.1484 112.918 22.6875 112.918 22.0391C112.918 21.8047 112.879 21.5938 112.77 21.2891L109.676 12.8984C109.34 11.9766 108.793 11.5703 107.871 11.5703C106.981 11.5703 106.426 11.9922 106.098 12.9062L103.02 21.2891C102.918 21.5781 102.863 21.8438 102.863 22.0391C102.863 22.7188 103.324 23.1484 104.059 23.1484ZM106.363 18.5L107.824 13.8828H107.879L109.371 18.5H106.363ZM117.348 23.1797C118.95 23.1797 120.379 22.3828 120.879 21.2422C120.981 21.0156 121.028 20.8281 121.028 20.6484C121.028 20.0859 120.598 19.7344 120.067 19.7344C119.582 19.7344 119.332 19.9297 119.028 20.4062C118.676 21 118.184 21.3906 117.387 21.3906C116.247 21.3906 115.536 20.4531 115.536 18.8047C115.536 17.1875 116.247 16.2344 117.403 16.2344C118.129 16.2344 118.637 16.5703 119.051 17.3047C119.286 17.7188 119.559 17.8984 120.012 17.8984C120.551 17.8984 120.989 17.5703 120.989 17.0078C120.989 16.8438 120.942 16.6406 120.864 16.4453C120.411 15.2578 119.012 14.4453 117.332 14.4453C114.817 14.4453 113.223 16.1328 113.223 18.8125C113.223 21.5234 114.825 23.1797 117.348 23.1797ZM122.536 20.8594C122.536 22.3359 123.309 23.0938 124.833 23.0938H124.911C125.872 23.0938 126.528 22.75 126.528 22.0781C126.528 21.5469 126.223 21.3125 125.661 21.25L125.512 21.2344C125.02 21.1953 124.817 20.9453 124.817 20.3516V16.3438H125.622C126.161 16.3438 126.497 16.0078 126.497 15.4844C126.497 14.9609 126.161 14.625 125.622 14.625H124.817V13.6953C124.817 12.9609 124.387 12.5078 123.677 12.5078C122.966 12.5078 122.536 12.9609 122.536 13.6953V14.625H122.098C121.559 14.625 121.216 14.9531 121.216 15.4844C121.216 16.0156 121.559 16.3438 122.098 16.3438H122.536V20.8594ZM128.474 13.5859C129.161 13.5859 129.692 13.0625 129.692 12.4062C129.692 11.7422 129.161 11.2266 128.474 11.2266C127.786 11.2266 127.255 11.7422 127.255 12.4062C127.255 13.0625 127.786 13.5859 128.474 13.5859ZM128.474 23.1641C129.177 23.1641 129.614 22.7188 129.614 21.9766V15.6484C129.614 14.9062 129.177 14.4531 128.474 14.4531C127.763 14.4531 127.333 14.9062 127.333 15.6484V21.9766C127.333 22.7188 127.763 23.1641 128.474 23.1641ZM134.662 23.1797C137.193 23.1797 138.81 21.5625 138.81 18.8047C138.81 16.0859 137.169 14.4453 134.662 14.4453C132.154 14.4453 130.513 16.0938 130.513 18.8047C130.513 21.5547 132.13 23.1797 134.662 23.1797ZM134.662 21.4375C133.537 21.4375 132.826 20.4922 132.826 18.8125C132.826 17.1484 133.552 16.1875 134.662 16.1875C135.771 16.1875 136.49 17.1484 136.49 18.8125C136.49 20.4922 135.779 21.4375 134.662 21.4375ZM140.81 23.1641C141.482 23.1641 141.951 22.7578 141.951 21.9766V18.1953C141.951 17.1094 142.599 16.3594 143.623 16.3594C144.646 16.3594 145.162 16.9844 145.162 18.0781V21.9766C145.162 22.7578 145.631 23.1641 146.302 23.1641C146.967 23.1641 147.443 22.7578 147.443 21.9766V17.6016C147.443 15.6406 146.396 14.4688 144.537 14.4688C143.248 14.4688 142.404 15.0391 141.959 16.0781H141.912V15.6094C141.912 14.8906 141.459 14.4531 140.771 14.4531C140.084 14.4531 139.67 14.8906 139.67 15.6016V21.9766C139.67 22.7578 140.146 23.1641 140.81 23.1641Z" fill="#FF9500"/>
<rect x="0.5" y="0.5" width="164" height="34" rx="17" stroke="#FFDCAA"/>
</svg>
