<svg width="79" height="28" viewBox="0 0 99 35" fill="none" xmlns="http://www.w3.org/2000/svg">
<rect x="0.5" y="0.5" width="98" height="34" rx="17" fill="#F0FBF3"/>
<path d="M18.1172 23H21.2422C24.625 23 26.6172 20.8984 26.6172 17.3203C26.6172 13.7422 24.625 11.7266 21.2422 11.7266H18.1172C17.375 11.7266 16.9375 12.1797 16.9375 12.9531V21.7656C16.9375 22.5469 17.375 23 18.1172 23ZM19.2969 21.0469V13.6719H20.9609C23.0391 13.6719 24.2109 14.9688 24.2109 17.3281C24.2109 19.7656 23.0703 21.0469 20.9609 21.0469H19.2969ZM31.4769 23.1797C33.0941 23.1797 34.3909 22.5703 34.9456 21.5391C35.0472 21.3516 35.1019 21.1641 35.1019 20.9844C35.1019 20.4609 34.7034 20.1484 34.2113 20.1484C33.9144 20.1484 33.7113 20.2344 33.4691 20.4844C32.8519 21.2109 32.305 21.4922 31.4691 21.4922C30.3128 21.4922 29.5628 20.6797 29.5628 19.4375V19.3359H34.3441C34.9769 19.3359 35.3363 18.9766 35.3363 18.3438C35.3363 16.0703 33.7425 14.4453 31.3675 14.4453C28.8909 14.4453 27.3206 16.1562 27.3206 18.8516C27.3206 21.5625 28.8597 23.1797 31.4769 23.1797ZM29.5863 17.9375C29.6644 16.8672 30.3909 16.1328 31.3909 16.1328C32.3909 16.1328 33.0941 16.8438 33.1409 17.9375H29.5863ZM37.3913 23.1641C38.0631 23.1641 38.5319 22.7578 38.5319 21.9766V12.75C38.5319 11.9688 38.0631 11.5547 37.3913 11.5547C36.7272 11.5547 36.2506 11.9688 36.2506 12.75V21.9766C36.2506 22.7578 36.7272 23.1641 37.3913 23.1641ZM40.9306 13.5859C41.6181 13.5859 42.1494 13.0625 42.1494 12.4062C42.1494 11.7422 41.6181 11.2266 40.9306 11.2266C40.2431 11.2266 39.7119 11.7422 39.7119 12.4062C39.7119 13.0625 40.2431 13.5859 40.9306 13.5859ZM40.9306 23.1641C41.6338 23.1641 42.0713 22.7188 42.0713 21.9766V15.6484C42.0713 14.9062 41.6338 14.4531 40.9306 14.4531C40.2197 14.4531 39.79 14.9062 39.79 15.6484V21.9766C39.79 22.7188 40.2197 23.1641 40.9306 23.1641ZM46.7903 23.1641C47.6184 23.1641 48.095 22.8047 48.3841 22L50.5637 16.1094C50.6341 15.9141 50.6887 15.6797 50.6887 15.4688C50.6887 14.8906 50.2122 14.4531 49.5794 14.4531C49.0481 14.4531 48.6653 14.7422 48.5091 15.3438L46.8137 20.9844H46.7669L45.0716 15.3672C44.8997 14.75 44.5325 14.4531 43.9778 14.4531C43.3294 14.4531 42.8372 14.8594 42.8372 15.4766C42.8372 15.7109 42.8919 15.9531 42.9622 16.1562L45.1419 22C45.4466 22.8125 45.9153 23.1641 46.7903 23.1641ZM55.025 23.1797C56.6422 23.1797 57.9391 22.5703 58.4938 21.5391C58.5953 21.3516 58.65 21.1641 58.65 20.9844C58.65 20.4609 58.2516 20.1484 57.7594 20.1484C57.4625 20.1484 57.2594 20.2344 57.0172 20.4844C56.4 21.2109 55.8531 21.4922 55.0172 21.4922C53.8609 21.4922 53.1109 20.6797 53.1109 19.4375V19.3359H57.8922C58.525 19.3359 58.8844 18.9766 58.8844 18.3438C58.8844 16.0703 57.2906 14.4453 54.9156 14.4453C52.4391 14.4453 50.8688 16.1562 50.8688 18.8516C50.8688 21.5625 52.4078 23.1797 55.025 23.1797ZM53.1344 17.9375C53.2125 16.8672 53.9391 16.1328 54.9391 16.1328C55.9391 16.1328 56.6422 16.8438 56.6891 17.9375H53.1344ZM60.8847 23.1641C61.58 23.1641 62.0253 22.7344 62.0253 21.9766V18.2578C62.0253 17.2656 62.3925 16.6797 63.4316 16.6641C63.8769 16.6562 64.205 16.5547 64.4238 16.3672C64.6425 16.1797 64.7519 15.9062 64.7519 15.5469C64.7519 15.1562 64.6425 14.875 64.4238 14.7031C64.2597 14.5625 64.0175 14.4922 63.7128 14.4922C62.8769 14.4922 62.1894 15.1094 61.9706 16.1484H61.9238V15.6016C61.9238 14.875 61.4863 14.4531 60.8456 14.4531C60.1894 14.4531 59.7441 14.875 59.7441 15.6016V21.9766C59.7441 22.7344 60.1972 23.1641 60.8847 23.1641ZM68.8225 23.1797C70.4397 23.1797 71.7366 22.5703 72.2912 21.5391C72.3928 21.3516 72.4475 21.1641 72.4475 20.9844C72.4475 20.4609 72.0491 20.1484 71.5569 20.1484C71.26 20.1484 71.0569 20.2344 70.8147 20.4844C70.1975 21.2109 69.6506 21.4922 68.8147 21.4922C67.6584 21.4922 66.9084 20.6797 66.9084 19.4375V19.3359H71.6897C72.3225 19.3359 72.6819 18.9766 72.6819 18.3438C72.6819 16.0703 71.0881 14.4453 68.7131 14.4453C66.2366 14.4453 64.6662 16.1562 64.6662 18.8516C64.6662 21.5625 66.2053 23.1797 68.8225 23.1797ZM66.9319 17.9375C67.01 16.8672 67.7366 16.1328 68.7366 16.1328C69.7366 16.1328 70.4397 16.8438 70.4866 17.9375H66.9319ZM76.6509 23.1328C77.94 23.1328 78.8619 22.4609 79.2291 21.5234H79.2681V22.0078C79.2681 22.7734 79.7603 23.1641 80.4166 23.1641C81.0806 23.1641 81.5494 22.7656 81.5494 22.0078V12.75C81.5494 11.9688 81.0806 11.5547 80.4087 11.5547C79.7447 11.5547 79.2681 11.9688 79.2681 12.75V16.0625H79.2212C78.815 15.1328 77.8775 14.4922 76.6666 14.4922C74.565 14.4922 73.2369 16.1406 73.2369 18.7969C73.2369 21.4766 74.5572 23.1328 76.6509 23.1328ZM77.4244 21.2969C76.2759 21.2969 75.5728 20.3516 75.5728 18.8125C75.5728 17.2812 76.2759 16.3203 77.4244 16.3203C78.5572 16.3203 79.2837 17.2891 79.2837 18.8125C79.2837 20.3438 78.5572 21.2969 77.4244 21.2969Z" fill="#34C759"/>
<rect x="0.5" y="0.5" width="98" height="34" rx="17" stroke="#BBEDC7"/>
</svg>
