<svg width="30" height="24" viewBox="0 0 30 24" fill="none" xmlns="http://www.w3.org/2000/svg">
<path d="M21.2388 23.7734C21.2255 23.7734 21.1988 23.7734 21.1855 23.7734H6.39875C2.47875 23.4934 0.71875 20.4801 0.71875 17.7867C0.71875 15.3867 2.11875 12.7201 5.17208 11.9867C4.31875 8.65336 5.03875 5.52002 7.21208 3.25336C9.67875 0.666691 13.6388 -0.359976 17.0388 0.693358C20.1588 1.65336 22.3588 4.22669 23.1588 7.80002C25.8921 8.41336 28.0655 10.4801 28.9455 13.3334C29.8921 16.4401 29.0388 19.6267 26.7055 21.6667C25.2121 23.0134 23.2655 23.7734 21.2388 23.7734ZM6.42542 13.8001C6.41208 13.8001 6.41208 13.8001 6.39875 13.8001C3.86542 13.9867 2.70542 15.9334 2.70542 17.7867C2.70542 19.6401 3.86542 21.5867 6.45208 21.7734H21.1721C22.7188 21.7467 24.1988 21.2134 25.3455 20.1734C27.4255 18.3467 27.5721 15.7467 27.0121 13.9201C26.4521 12.0801 24.8921 10.0001 22.1721 9.65338C21.7321 9.60005 21.3855 9.26669 21.3055 8.82669C20.7721 5.62669 19.0388 3.41336 16.4388 2.61336C13.7321 1.78669 10.6121 2.60002 8.65208 4.64002C6.87875 6.49336 6.37208 9.05336 7.19875 11.8667C7.87875 11.9601 8.53208 12.1601 9.13208 12.4667C9.62542 12.7201 9.82542 13.3201 9.57208 13.8134C9.31875 14.3067 8.71875 14.5067 8.22542 14.2534C7.67875 13.9734 7.07875 13.8267 6.47875 13.8267C6.46542 13.8001 6.45208 13.8001 6.42542 13.8001Z" fill="#B8B8B8"/>
</svg>
