<svg width="16" height="17" viewBox="0 0 16 17" fill="none" xmlns="http://www.w3.org/2000/svg">
<path d="M10.1738 15.3334H5.82714C2.55381 15.3334 1.15381 13.9334 1.15381 10.6601V10.5734C1.15381 7.61341 2.32048 6.18677 4.93381 5.9401C5.20048 5.9201 5.45381 6.1201 5.48048 6.39343C5.50714 6.66676 5.30714 6.91343 5.02714 6.9401C2.93381 7.13343 2.15381 8.12008 2.15381 10.5801V10.6667C2.15381 13.3801 3.11381 14.3401 5.82714 14.3401H10.1738C12.8872 14.3401 13.8472 13.3801 13.8472 10.6667V10.5801C13.8472 8.10674 13.0538 7.1201 10.9205 6.9401C10.6472 6.91343 10.4405 6.67343 10.4672 6.4001C10.4938 6.12676 10.7272 5.9201 11.0072 5.94676C13.6605 6.17343 14.8472 7.60675 14.8472 10.5867V10.6734C14.8472 13.9334 13.4472 15.3334 10.1738 15.3334Z" fill="white"/>
<path d="M8 11C7.72667 11 7.5 10.7733 7.5 10.5V2.91333C7.5 2.64 7.72667 2.41333 8 2.41333C8.27333 2.41333 8.5 2.64 8.5 2.91333V10.5C8.5 10.7733 8.27333 11 8 11Z" fill="white"/>
<path d="M10.233 4.89988C10.1064 4.89988 9.97971 4.85321 9.87971 4.75321L7.99971 2.87321L6.11973 4.75321C5.9264 4.94655 5.6064 4.94655 5.41307 4.75321C5.21973 4.55988 5.21973 4.23988 5.41307 4.04655L7.64637 1.81321C7.83971 1.61988 8.15971 1.61988 8.35304 1.81321L10.5864 4.04655C10.7797 4.23988 10.7797 4.55988 10.5864 4.75321C10.493 4.85321 10.3597 4.89988 10.233 4.89988Z" fill="white"/>
</svg>
