<svg width="78" height="24" viewBox="0 0 78 24" fill="none" xmlns="http://www.w3.org/2000/svg">
<rect width="78" height="24" rx="12" fill="#F0FBF3"/>
<path d="M11.8848 16.0938C12.3477 16.0938 12.6055 15.9004 12.7871 15.4199L15.459 8.39453C15.5059 8.26562 15.5293 8.14844 15.5293 8.03711C15.5293 7.69727 15.2539 7.45117 14.8613 7.45117C14.5273 7.45117 14.3457 7.5918 14.2285 7.9375L11.9141 14.5234H11.8789L9.56445 7.94336C9.45312 7.60352 9.24805 7.45117 8.91406 7.45117C8.51562 7.45117 8.24609 7.69141 8.24609 8.04297C8.24609 8.16016 8.26953 8.27734 8.31641 8.41211L10.9824 15.4141C11.1582 15.8945 11.4219 16.0938 11.8848 16.0938ZM18.4998 16.1172C19.6482 16.1172 20.5447 15.6543 20.949 14.8457C21.0017 14.7227 21.0369 14.6055 21.0369 14.5059C21.0369 14.1895 20.8142 13.9902 20.5095 13.9902C20.3279 13.9902 20.199 14.0547 20.0642 14.2129C19.5955 14.8516 19.1619 15.0918 18.4705 15.0918C17.4627 15.0918 16.8298 14.3887 16.8298 13.2637V13.2344H20.5564C20.949 13.2344 21.1834 13 21.1834 12.5898C21.1834 10.9082 20.0525 9.72461 18.4119 9.72461C16.6658 9.72461 15.5525 10.9902 15.5525 12.9473C15.5525 14.9395 16.6423 16.1172 18.4998 16.1172ZM16.8357 12.3496C16.9002 11.3887 17.533 10.7441 18.406 10.7441C19.2849 10.7441 19.8884 11.3828 19.9177 12.3496H16.8357ZM23.0405 16.1113C23.4155 16.1113 23.6734 15.8535 23.6734 15.4434V12.2969C23.6734 11.5293 24.0249 10.9492 24.8921 10.9434C25.1558 10.9434 25.3433 10.8906 25.4722 10.7793C25.5952 10.6797 25.6597 10.5332 25.6597 10.334C25.6597 10.1348 25.607 9.98242 25.4898 9.88867C25.3843 9.78906 25.2144 9.73633 24.9917 9.73633C24.3765 9.73633 23.8081 10.1992 23.6382 10.8906H23.6089V10.3633C23.6089 9.97656 23.3628 9.72461 23.0112 9.72461C22.6538 9.72461 22.4077 9.97656 22.4077 10.3633V15.4434C22.4077 15.8535 22.6597 16.1113 23.0405 16.1113ZM27.2591 8.9043C27.6692 8.9043 27.9973 8.57617 27.9973 8.17773C27.9973 7.77344 27.6692 7.45703 27.2591 7.45703C26.8548 7.45703 26.5266 7.77344 26.5266 8.17773C26.5266 8.57617 26.8548 8.9043 27.2591 8.9043ZM27.2591 16.1113C27.6399 16.1113 27.8919 15.8477 27.8919 15.4434V10.3984C27.8919 9.98828 27.6399 9.72461 27.2591 9.72461C26.8782 9.72461 26.6262 9.98828 26.6262 10.3984V15.4434C26.6262 15.8477 26.8782 16.1113 27.2591 16.1113ZM30.4346 16.1113C30.8155 16.1113 31.0674 15.8711 31.0674 15.4492V10.8379H31.8819C32.1807 10.8379 32.3858 10.6621 32.3858 10.3457C32.3858 10.041 32.1807 9.84766 31.8819 9.84766H31.0498V9.29102C31.0498 8.72852 31.2725 8.47656 31.8057 8.4707C31.9346 8.4707 32.0401 8.45312 32.128 8.42969C32.333 8.37109 32.4327 8.24805 32.4327 8.04297C32.4327 7.70312 32.1104 7.48633 31.4366 7.48633C30.376 7.49219 29.7959 8.04883 29.7959 9.24414V9.84766H29.3565C29.0577 9.84766 28.8526 10.041 28.8526 10.3457C28.8526 10.6621 29.0577 10.8379 29.3565 10.8379H29.7959V15.4492C29.7959 15.8711 30.0479 16.1113 30.4346 16.1113ZM34.2078 8.9043C34.618 8.9043 34.9461 8.57617 34.9461 8.17773C34.9461 7.77344 34.618 7.45703 34.2078 7.45703C33.8035 7.45703 33.4754 7.77344 33.4754 8.17773C33.4754 8.57617 33.8035 8.9043 34.2078 8.9043ZM34.2078 16.1113C34.5887 16.1113 34.8406 15.8477 34.8406 15.4434V10.3984C34.8406 9.98828 34.5887 9.72461 34.2078 9.72461C33.827 9.72461 33.575 9.98828 33.575 10.3984V15.4434C33.575 15.8477 33.827 16.1113 34.2078 16.1113ZM39.0474 16.1172C40.1959 16.1172 41.0923 15.6543 41.4966 14.8457C41.5494 14.7227 41.5845 14.6055 41.5845 14.5059C41.5845 14.1895 41.3619 13.9902 41.0572 13.9902C40.8755 13.9902 40.7466 14.0547 40.6119 14.2129C40.1431 14.8516 39.7095 15.0918 39.0181 15.0918C38.0103 15.0918 37.3775 14.3887 37.3775 13.2637V13.2344H41.1041C41.4966 13.2344 41.731 13 41.731 12.5898C41.731 10.9082 40.6002 9.72461 38.9595 9.72461C37.2134 9.72461 36.1002 10.9902 36.1002 12.9473C36.1002 14.9395 37.19 16.1172 39.0474 16.1172ZM37.3834 12.3496C37.4478 11.3887 38.0806 10.7441 38.9537 10.7441C39.8326 10.7441 40.4361 11.3828 40.4654 12.3496H37.3834ZM45.2698 16.1055C46.2308 16.1055 46.8812 15.625 47.1976 14.9043H47.2152V15.4785C47.2152 15.877 47.5023 16.1113 47.8597 16.1113C48.2288 16.1113 48.4866 15.877 48.4866 15.4785V8.10156C48.4866 7.68555 48.223 7.43359 47.8538 7.43359C47.4788 7.43359 47.2152 7.68555 47.2152 8.10156V10.8613H47.1917C46.846 10.1816 46.1429 9.73633 45.2581 9.73633C43.7113 9.73633 42.68 10.9727 42.68 12.918C42.68 14.8633 43.7113 16.1055 45.2698 16.1055ZM45.6038 15.0332C44.6019 15.0332 43.9749 14.2188 43.9749 12.918C43.9749 11.623 44.6019 10.8027 45.6038 10.8027C46.5765 10.8027 47.2269 11.6406 47.2269 12.918C47.2269 14.207 46.5765 15.0332 45.6038 15.0332Z" fill="#34C759"/>
<path d="M68.3739 11.1584L67.4672 10.1051C67.2939 9.90508 67.1539 9.53174 67.1539 9.26508V8.13174C67.1539 7.42508 66.5739 6.84508 65.8672 6.84508H64.7339C64.4739 6.84508 64.0939 6.70508 63.8939 6.53174L62.8405 5.62508C62.3805 5.23174 61.6272 5.23174 61.1605 5.62508L60.1138 6.53841C59.9138 6.70508 59.5338 6.84508 59.2738 6.84508H58.1205C57.4138 6.84508 56.8338 7.42508 56.8338 8.13174V9.27174C56.8338 9.53174 56.6938 9.90508 56.5272 10.1051L55.6272 11.1651C55.2405 11.6251 55.2405 12.3718 55.6272 12.8318L56.5272 13.8918C56.6938 14.0918 56.8338 14.4651 56.8338 14.7251V15.8651C56.8338 16.5718 57.4138 17.1518 58.1205 17.1518H59.2738C59.5338 17.1518 59.9138 17.2918 60.1138 17.4651L61.1672 18.3718C61.6272 18.7651 62.3805 18.7651 62.8472 18.3718L63.9005 17.4651C64.1005 17.2918 64.4739 17.1518 64.7405 17.1518H65.8739C66.5805 17.1518 67.1605 16.5718 67.1605 15.8651V14.7318C67.1605 14.4718 67.3005 14.0918 67.4739 13.8918L68.3805 12.8384C68.7672 12.3784 68.7672 11.6184 68.3739 11.1584ZM64.7739 10.7384L61.5539 13.9584C61.4605 14.0518 61.3339 14.1051 61.2005 14.1051C61.0672 14.1051 60.9405 14.0518 60.8472 13.9584L59.2338 12.3451C59.0405 12.1518 59.0405 11.8318 59.2338 11.6384C59.4272 11.4451 59.7472 11.4451 59.9405 11.6384L61.2005 12.8984L64.0672 10.0317C64.2605 9.83841 64.5805 9.83841 64.7739 10.0317C64.9672 10.2251 64.9672 10.5451 64.7739 10.7384Z" fill="#34C759"/>
</svg>
