<?xml version="1.0" encoding="UTF-8"?>
<svg id="Layer_2" data-name="Layer 2" xmlns="http://www.w3.org/2000/svg" xmlns:xlink="http://www.w3.org/1999/xlink" viewBox="0 0 1284 535">
  <defs>
    <style>
      .cls-1 {
        letter-spacing: 0em;
      }

      .cls-1, .cls-2, .cls-3, .cls-4, .cls-5, .cls-6, .cls-7, .cls-8, .cls-9, .cls-10, .cls-11, .cls-12, .cls-13, .cls-14, .cls-15, .cls-16 {
        font-family: AcuminConcept-Semibold, 'Acumin Variable Concept';
        font-variation-settings: 'wght' 600, 'wdth' 100, 'slnt' 0;
        font-weight: 600;
      }

      .cls-17 {
        font-size: 24px;
      }

      .cls-17, .cls-11, .cls-18, .cls-19 {
        fill: #883033;
      }

      .cls-2 {
        letter-spacing: 0em;
      }

      .cls-3 {
        letter-spacing: 0em;
      }

      .cls-20 {
        fill: url(#radial-gradient);
      }

      .cls-4 {
        letter-spacing: -.01em;
      }

      .cls-5 {
        letter-spacing: -.02em;
      }

      .cls-6 {
        letter-spacing: 0em;
      }

      .cls-7 {
        letter-spacing: -.01em;
      }

      .cls-8 {
        letter-spacing: -.01em;
      }

      .cls-9 {
        letter-spacing: 0em;
      }

      .cls-21 {
        letter-spacing: 0em;
      }

      .cls-22 {
        letter-spacing: 0em;
      }

      .cls-10 {
        letter-spacing: .02em;
      }

      .cls-11 {
        font-size: 26px;
      }

      .cls-12, .cls-23 {
        letter-spacing: 0em;
      }

      .cls-13 {
        letter-spacing: 0em;
      }

      .cls-14 {
        letter-spacing: 0em;
      }

      .cls-23, .cls-18 {
        font-family: ArialRoundedMTBold, 'Arial Rounded MT Bold';
        stroke-width: .5px;
      }

      .cls-23, .cls-18, .cls-19 {
        stroke: #883033;
        stroke-miterlimit: 10;
      }

      .cls-15 {
        letter-spacing: 0em;
      }

      .cls-16 {
        letter-spacing: 0em;
      }

      .cls-24 {
        fill: #f5c659;
      }

      .cls-25 {
        letter-spacing: -.09em;
      }

      .cls-26 {
        letter-spacing: -.05em;
      }

      .cls-27 {
        letter-spacing: -.02em;
      }

      .cls-28 {
        letter-spacing: -.05em;
      }

      .cls-29 {
        letter-spacing: -.04em;
      }

      .cls-30 {
        letter-spacing: -.03em;
      }

      .cls-31 {
        letter-spacing: -.03em;
      }

      .cls-32 {
        letter-spacing: -.03em;
      }

      .cls-33 {
        letter-spacing: 0em;
      }

      .cls-18 {
        font-size: 66px;
      }

      .cls-34 {
        letter-spacing: 0em;
      }

      .cls-35 {
        letter-spacing: 0em;
      }

      .cls-36 {
        letter-spacing: 0em;
      }

      .cls-37 {
        letter-spacing: 0em;
      }

      .cls-19 {
        fill-rule: evenodd;
      }
    </style>
    <radialGradient id="radial-gradient" cx="642" cy="267.5" fx="642" fy="267.5" r="491.79" gradientUnits="userSpaceOnUse">
      <stop offset="0" stop-color="#f0dece"/>
      <stop offset=".5" stop-color="#f2ddd2"/>
      <stop offset="1" stop-color="#f8dbde"/>
    </radialGradient>
  </defs>
  <g id="Layer_1-2" data-name="Layer 1">
    <g>
      <rect class="cls-20" width="1284" height="535"/>
      <path class="cls-24" d="M807.12,158.63c1.14-1.37,3.42-.34,3.24,1.53l-5.33,20.62c-1.26,1.55-3.08.34-3.01-1.46l5.11-20.69Z"/>
      <path class="cls-24" d="M421.32,195.06c.76-.25,1.44-.09,2.16.21,3.49,1.44,8.95,7.88,12.78,9.72,1.82,2.11.37,3.7-2.24,2.74-.75-.28-12.01-8.86-12.78-9.72-.84-.93-1.31-2.49.08-2.95Z"/>
      <path class="cls-24" d="M853.57,231.94c-1.32-.83-.31-2.97,1.8-3.3s12.52-1.42,13.63-.88c1.51.73,1.2,2.68-.35,3.14s-14.37,1.49-15.07,1.04Z"/>
      <path class="cls-24" d="M477.94,179.94c-.39.24-1.6.13-2.08-.04-.86-.29-6.88-9.04-6.9-10.15-.02-1.48.76-2.11,2.2-1.68.57.17,6.58,8.56,6.97,9.59.24.62.28,1.98-.2,2.27Z"/>
      <path class="cls-24" d="M836.34,179.58c1.94-.6,3.29.4,2.39,2.4-.36.81-6.56,8.3-7.1,8.44-1.56.43-3.01-.7-2.27-2.28.41-.88,6.45-8.4,6.98-8.57Z"/>
      <path class="cls-24" d="M509,183.51c.98.97-2.2,1.18-2.95,2.3-.65.97-1.09,6.77-2.18,4.08-.86-2.12.13-2.98-2.52-4.49-.5-.29-3.22-.53-1.53-1.38.94-.47,1.53.01,2.61-1.32,1.37-1.69.53-3.67,1.82-5.17,1.12,1.44.94,3.27,2.24,4.75,1.1,1.26,2.4,1.15,2.51,1.25Z"/>
      <path class="cls-24" d="M435.84,252.09c1.34-.13,2.27,1.96,1.16,3.17-.9.98-12.32,6.33-10.93,1.59.29-.99,8.66-4.65,9.77-4.76Z"/>
      <path class="cls-24" d="M783,191.49c-3.52-.34-1.31,4.27-4,4.5.03-1.1.07-2.22-.55-3.2-.71-1.13-2.81-1.02-2.46-2.05.14-.41,1.16-.25,1.77-.72,1.31-1,1.33-3.02,1.23-4.53,1.8-.19,1.33,1.9,1.89,2.86.72,1.25,2.11,1.84,2.11,3.13Z"/>
      <path class="cls-24" d="M850,244c-.98,1.91,3.01,4.76,2.5,5.49-.05.07-1,.11-1.52.72-1.14,1.35-.27,3.98-1.98,3.79.27-2.6-.59-3.93-3-4.75,2.49-1.31,2.31-2.2,2.99-4.52.21-.73-.3-.87,1.01-.74Z"/>
      <path class="cls-24" d="M415.63,240.37c-1.47-1.47.48-4.67,2.67-2.92s-.96,4.62-2.67,2.92Z"/>
      <path class="cls-24" d="M771.84,164.58c2.15-.18,2.61,4.56-1.02,3.36-1.65-.55-.83-3.2,1.02-3.36Z"/>
      <path class="cls-24" d="M427.07,219.57c1.41-.9,4,.63,2.71,2.46-1.51,2.14-4.82-1.13-2.71-2.46Z"/>
      <path class="cls-24" d="M458.8,191.05c2.16-.69,2.95,1.87,1.73,2.73-2.17,1.52-3.65-2.12-1.73-2.73Z"/>
      <path class="cls-24" d="M854.3,199.55c2.16-.69,2.95,1.87,1.73,2.73-2.17,1.52-3.65-2.12-1.73-2.73Z"/>
      <path class="cls-24" d="M447,186.5c-.46.46-2.61.44-1.94-1.69.72-2.3,2.83.8,1.94,1.69Z"/>
      <text class="cls-11" transform="translate(531.97 151.69)"><tspan class="cls-34" x="0" y="0">W</tspan><tspan class="cls-33" x="24.34" y="0">E</tspan><tspan class="cls-27" x="40.09" y="0">L</tspan><tspan class="cls-35" x="54.55" y="0">CO</tspan><tspan class="cls-21" x="92.43" y="0">M</tspan><tspan class="cls-37" x="115.31" y="0">E O</tspan><tspan class="cls-22" x="157.12" y="0">FF</tspan><tspan class="cls-33" x="187.28" y="0">E</tspan><tspan class="cls-36" x="203.03" y="0">R</tspan></text>
      <text class="cls-18" transform="translate(443.25 248.18)"><tspan class="cls-30"><tspan x="0" y="0">Get 10% OFF</tspan></tspan><tspan class="cls-25" x="-43.81" y="87">Y</tspan><tspan class="cls-32" x="-8.43" y="87">our </tspan><tspan class="cls-29" x="109.84" y="87">F</tspan><tspan class="cls-32" x="147.12" y="87">i</tspan><tspan class="cls-28" x="163.29" y="87">r</tspan><tspan class="cls-30" x="188.84" y="87">st O</tspan><tspan class="cls-26" x="309.88" y="87">r</tspan><tspan class="cls-31" x="335.36" y="87">der</tspan></text>
      <text class="cls-17" transform="translate(404.27 400.84)"><tspan class="cls-5" x="0" y="0">U</tspan><tspan class="cls-1" x="16.75" y="0">s</tspan><tspan class="cls-9" x="28.78" y="0">e</tspan><tspan class="cls-12" x="41.59" y="0" xml:space="preserve"> p</tspan><tspan class="cls-8" x="61.46" y="0">r</tspan><tspan class="cls-13" x="70.29" y="0">omo </tspan><tspan class="cls-3" x="123.98" y="0">c</tspan><tspan class="cls-2" x="136.68" y="0">o</tspan><tspan class="cls-12" x="150.43" y="0">d</tspan><tspan class="cls-10" x="164.54" y="0">e</tspan><tspan class="cls-12" x="178" y="0">: </tspan><tspan class="cls-23" x="190.48" y="0">FIRSTMOOD </tspan><tspan class="cls-7" x="341.82" y="0">a</tspan><tspan class="cls-14" x="354.7" y="0">t </tspan><tspan class="cls-6" x="368.81" y="0">c</tspan><tspan class="cls-14" x="381.34" y="0">h</tspan><tspan class="cls-15" x="395.29" y="0">e</tspan><tspan class="cls-6" x="408.46" y="0">c</tspan><tspan class="cls-4" x="420.99" y="0">k</tspan><tspan class="cls-12" x="433.57" y="0">o</tspan><tspan class="cls-16" x="447.17" y="0">u</tspan><tspan class="cls-14" x="461.12" y="0">t</tspan></text>
      <path class="cls-19" d="M899.26,386.45h-1.99c.27-.48.48-.97.52-1.31.09-.97-.16-1.76-.75-2.32-.52-.55-1.17-.69-1.96-.69h-.16c-.76.03-1.6.36-2.21.84-.61.48-1.05,1.04-1.4,1.73-.33-.69-.79-1.27-1.4-1.73-.61-.46-1.44-.84-2.21-.84h-.04c-.81,0-1.53.13-2.08.69-.59.56-.84,1.36-.75,2.32.04.33.25.84.52,1.31h-1.99c-.79,0-1.44.65-1.44,1.44v4.33h1.44v7.21c0,.79.65,1.44,1.44,1.44h12.98c.79,0,1.44-.65,1.44-1.44v-7.21h1.44v-4.33c0-.79-.65-1.44-1.44-1.44h.03ZM892.37,385.18c.25-.52.61-.97,1.08-1.33.43-.33,1.04-.56,1.51-.59h.13c.65,0,.95.16,1.15.36s.48.56.43,1.37c-.07.27-.36.88-.72,1.44h-4.18l.59-1.27s0,.01,0,.01ZM886.42,383.62c.19-.19.45-.36,1.31-.36.45,0,1.04.25,1.49.59.48.36.84.79,1.08,1.33l.61,1.27h-4.18c-.36-.56-.65-1.17-.72-1.44-.04-.81.23-1.17.43-1.37h-.01ZM890.61,399.41h-5.77v-7.19h5.77v7.21h0ZM890.61,390.76h-7.21v-2.87h7.21v2.88h0ZM897.82,399.41h-5.77v-7.19h5.77v7.21h0ZM899.26,390.76h-7.21v-2.87h7.21v2.88h0Z"/>
    </g>
  </g>
</svg>