<svg xmlns="http://www.w3.org/2000/svg" xmlns:xlink="http://www.w3.org/1999/xlink" width="500" zoomAndPan="magnify" viewBox="0 0 375 374.999991" height="500" preserveAspectRatio="xMidYMid meet" version="1.0"><defs><g/></defs><rect x="-37.5" width="450" fill="#ffffff" y="-37.499999" height="449.999989" fill-opacity="1"/><rect x="-37.5" width="450" fill="#fff1d8" y="-37.499999" height="449.999989" fill-opacity="1"/><g fill="#604f3f" fill-opacity="1"><g transform="translate(7.599715, 226.874985)"><g><path d="M 28.015625 0 L 28.015625 -2.078125 C 30.492188 -2.878906 32.101562 -4.546875 32.84375 -7.078125 C 33.59375 -9.609375 33.96875 -13.554688 33.96875 -18.921875 L 33.96875 -101.609375 L 29.34375 -101.609375 C 22.695312 -101.609375 17.484375 -100.488281 13.703125 -98.25 C 9.929688 -96.019531 6.65625 -91.925781 3.875 -85.96875 L 2.078125 -86.265625 L 2.984375 -104.296875 L 80.59375 -104.296875 L 81.5 -86.265625 L 79.703125 -85.96875 C 76.921875 -91.925781 73.644531 -96.019531 69.875 -98.25 C 66.101562 -100.488281 60.890625 -101.609375 54.234375 -101.609375 L 49.90625 -101.609375 L 49.90625 -18.921875 C 49.90625 -13.554688 50.273438 -9.609375 51.015625 -7.078125 C 51.765625 -4.546875 53.382812 -2.878906 55.875 -2.078125 L 55.875 0 Z M 28.015625 0 "/></g></g></g><g fill="#604f3f" fill-opacity="1"><g transform="translate(85.814109, 226.874985)"><g><path d="M 61.078125 0 C 57.109375 0 55.125 -1.984375 55.125 -5.953125 L 55.125 -30.546875 C 53.726562 -24.785156 51.640625 -19.46875 48.859375 -14.59375 C 46.085938 -9.726562 42.664062 -5.832031 38.59375 -2.90625 C 34.519531 0.0195312 29.898438 1.484375 24.734375 1.484375 C 19.265625 1.484375 14.519531 -0.203125 10.5 -3.578125 C 6.476562 -6.953125 4.46875 -11.769531 4.46875 -18.03125 C 4.46875 -23.195312 6.03125 -27.390625 9.15625 -30.609375 C 12.289062 -33.835938 16.4375 -36.546875 21.59375 -38.734375 C 26.757812 -40.921875 32.425781 -42.859375 38.59375 -44.546875 L 55.125 -49.3125 C 55.019531 -56.664062 53.15625 -61.90625 49.53125 -65.03125 C 45.90625 -68.15625 41.3125 -69.71875 35.75 -69.71875 C 31.582031 -69.71875 27.460938 -68.75 23.390625 -66.8125 C 19.316406 -64.882812 15.394531 -61.632812 11.625 -57.0625 L 10.125 -58.40625 C 14.300781 -63.570312 19.21875 -67.71875 24.875 -70.84375 C 30.539062 -73.96875 36.75 -75.53125 43.5 -75.53125 C 52.539062 -75.53125 59.21875 -73.171875 63.53125 -68.453125 C 67.851562 -63.734375 70.015625 -56.804688 70.015625 -47.671875 L 70.015625 -18.921875 C 70.015625 -13.554688 70.382812 -9.609375 71.125 -7.078125 C 71.875 -4.546875 73.492188 -2.878906 75.984375 -2.078125 L 75.984375 0 Z M 18.328125 -23.234375 C 18.328125 -18.367188 19.789062 -14.84375 22.71875 -12.65625 C 25.644531 -10.476562 28.800781 -9.390625 32.1875 -9.390625 C 35.851562 -9.390625 39.101562 -10.503906 41.9375 -12.734375 C 44.769531 -14.972656 47.15625 -17.851562 49.09375 -21.375 C 51.03125 -24.90625 52.519531 -28.601562 53.5625 -32.46875 C 54.601562 -36.34375 55.125 -39.972656 55.125 -43.359375 L 55.125 -47.234375 L 39.1875 -42.609375 C 37.394531 -42.109375 35.332031 -41.382812 33 -40.4375 C 30.664062 -39.5 28.378906 -38.285156 26.140625 -36.796875 C 23.910156 -35.304688 22.050781 -33.441406 20.5625 -31.203125 C 19.070312 -28.972656 18.328125 -26.316406 18.328125 -23.234375 Z M 18.328125 -23.234375 "/></g></g></g><g fill="#604f3f" fill-opacity="1"><g transform="translate(159.559094, 226.874985)"><g><path d="M 28.015625 1.484375 C 22.941406 1.484375 19.085938 -0.25 16.453125 -3.71875 C 13.828125 -7.195312 12.515625 -12.957031 12.515625 -21 L 12.515625 -72.109375 L 2.984375 -72.109375 L 2.984375 -74.5 L 25.328125 -94.15625 L 27.71875 -94.15625 L 27.71875 -74.5 L 50.796875 -74.5 L 50.203125 -72.109375 L 27.71875 -72.109375 L 27.71875 -20.859375 C 27.71875 -16.285156 28.5625 -12.929688 30.25 -10.796875 C 31.9375 -8.660156 34.414062 -7.59375 37.6875 -7.59375 C 39.375 -7.59375 41.382812 -8.0625 43.71875 -9 C 46.0625 -9.945312 48.472656 -11.960938 50.953125 -15.046875 L 52.4375 -13.5625 C 48.46875 -8.988281 44.519531 -5.335938 40.59375 -2.609375 C 36.675781 0.117188 32.484375 1.484375 28.015625 1.484375 Z M 28.015625 1.484375 "/></g></g></g><g fill="#604f3f" fill-opacity="1"><g transform="translate(207.381479, 226.874985)"><g><path d="M 39.921875 1.484375 C 33.867188 1.484375 28.132812 0.09375 22.71875 -2.6875 C 17.300781 -5.46875 12.929688 -9.535156 9.609375 -14.890625 C 6.285156 -20.253906 4.625 -26.765625 4.625 -34.421875 C 4.625 -40.671875 5.710938 -46.328125 7.890625 -51.390625 C 10.078125 -56.460938 13.082031 -60.785156 16.90625 -64.359375 C 20.726562 -67.929688 25.046875 -70.6875 29.859375 -72.625 C 34.679688 -74.5625 39.675781 -75.53125 44.84375 -75.53125 C 52.789062 -75.53125 59.242188 -74.632812 64.203125 -72.84375 C 69.171875 -71.0625 71.65625 -69.128906 71.65625 -67.046875 C 71.65625 -65.554688 71.109375 -64.066406 70.015625 -62.578125 C 68.929688 -61.085938 67.617188 -59.84375 66.078125 -58.84375 C 64.535156 -57.851562 63.019531 -57.359375 61.53125 -57.359375 C 59.445312 -57.359375 56.640625 -58.597656 53.109375 -61.078125 C 49.585938 -63.566406 44.945312 -67.539062 39.1875 -73 C 34.914062 -72.40625 31.164062 -70.691406 27.9375 -67.859375 C 24.707031 -65.023438 22.222656 -61.523438 20.484375 -57.359375 C 18.742188 -53.191406 17.875 -48.722656 17.875 -43.953125 C 17.875 -37.492188 19.140625 -31.726562 21.671875 -26.65625 C 24.203125 -21.59375 27.773438 -17.644531 32.390625 -14.8125 C 37.015625 -11.988281 42.457031 -10.578125 48.71875 -10.578125 C 54.28125 -10.578125 59.195312 -11.671875 63.46875 -13.859375 C 67.738281 -16.046875 71.414062 -18.875 74.5 -22.34375 L 75.828125 -20.859375 C 73.546875 -17.378906 70.71875 -13.925781 67.34375 -10.5 C 63.96875 -7.070312 59.992188 -4.21875 55.421875 -1.9375 C 50.847656 0.34375 45.679688 1.484375 39.921875 1.484375 Z M 39.921875 1.484375 "/></g></g></g><g fill="#604f3f" fill-opacity="1"><g transform="translate(280.82851, 226.874985)"><g><path d="M 2.984375 0 L 2.984375 -2.078125 C 5.460938 -2.878906 7.070312 -4.546875 7.8125 -7.078125 C 8.5625 -9.609375 8.9375 -13.554688 8.9375 -18.921875 L 8.9375 -97.875 C 8.9375 -102.25 8.414062 -105.128906 7.375 -106.515625 C 6.332031 -107.910156 4.867188 -109.003906 2.984375 -109.796875 L 2.984375 -111.890625 L 22.640625 -120.53125 L 24.140625 -119.34375 L 24.140625 -62.125 C 28.210938 -65.5 32.878906 -68.578125 38.140625 -71.359375 C 43.398438 -74.140625 48.910156 -75.53125 54.671875 -75.53125 C 61.523438 -75.53125 67.0625 -73.617188 71.28125 -69.796875 C 75.507812 -65.972656 77.625 -59.691406 77.625 -50.953125 L 77.625 -18.921875 C 77.625 -13.554688 77.992188 -9.609375 78.734375 -7.078125 C 79.484375 -4.546875 81.097656 -2.878906 83.578125 -2.078125 L 83.578125 0 L 56.46875 0 L 56.46875 -2.078125 C 58.945312 -2.878906 60.554688 -4.546875 61.296875 -7.078125 C 62.046875 -9.609375 62.421875 -13.554688 62.421875 -18.921875 L 62.421875 -48.265625 C 62.421875 -55.023438 61.003906 -60.265625 58.171875 -63.984375 C 55.347656 -67.710938 51.15625 -69.578125 45.59375 -69.578125 C 42.113281 -69.578125 38.6875 -68.734375 35.3125 -67.046875 C 31.9375 -65.359375 28.210938 -62.875 24.140625 -59.59375 L 24.140625 -18.921875 C 24.140625 -13.554688 24.507812 -9.609375 25.25 -7.078125 C 26 -4.546875 27.613281 -2.878906 30.09375 -2.078125 L 30.09375 0 Z M 2.984375 0 "/></g></g></g></svg>