<svg xmlns="http://www.w3.org/2000/svg" xmlns:xlink="http://www.w3.org/1999/xlink" width="500" zoomAndPan="magnify" viewBox="0 0 375 374.999991" height="500" preserveAspectRatio="xMidYMid meet" version="1.0"><defs><g/></defs><rect x="-37.5" width="450" fill="#ffffff" y="-37.499999" height="449.999989" fill-opacity="1"/><rect x="-37.5" width="450" fill="#fff1d8" y="-37.499999" height="449.999989" fill-opacity="1"/><g fill="#604f3f" fill-opacity="1"><g transform="translate(55.87507, 215.999986)"><g><path d="M 20.484375 0 L 20.484375 -1.53125 C 22.304688 -2.101562 23.488281 -3.316406 24.03125 -5.171875 C 24.582031 -7.023438 24.859375 -9.914062 24.859375 -13.84375 L 24.859375 -74.34375 L 21.46875 -74.34375 C 16.601562 -74.34375 12.789062 -73.523438 10.03125 -71.890625 C 7.269531 -70.253906 4.867188 -67.253906 2.828125 -62.890625 L 1.53125 -63.109375 L 2.1875 -76.296875 L 58.96875 -76.296875 L 59.625 -63.109375 L 58.3125 -62.890625 C 56.28125 -67.253906 53.882812 -70.253906 51.125 -71.890625 C 48.363281 -73.523438 44.546875 -74.34375 39.671875 -74.34375 L 36.515625 -74.34375 L 36.515625 -13.84375 C 36.515625 -9.914062 36.785156 -7.023438 37.328125 -5.171875 C 37.878906 -3.316406 39.0625 -2.101562 40.875 -1.53125 L 40.875 0 Z M 20.484375 0 "/></g></g></g><g fill="#604f3f" fill-opacity="1"><g transform="translate(113.097859, 215.999986)"><g><path d="M 44.6875 0 C 41.78125 0 40.328125 -1.453125 40.328125 -4.359375 L 40.328125 -22.34375 C 39.304688 -18.125 37.78125 -14.234375 35.75 -10.671875 C 33.71875 -7.117188 31.210938 -4.269531 28.234375 -2.125 C 25.253906 0.0195312 21.875 1.09375 18.09375 1.09375 C 14.09375 1.09375 10.617188 -0.140625 7.671875 -2.609375 C 4.734375 -5.085938 3.265625 -8.613281 3.265625 -13.1875 C 3.265625 -16.96875 4.410156 -20.035156 6.703125 -22.390625 C 8.992188 -24.753906 12.023438 -26.734375 15.796875 -28.328125 C 19.578125 -29.929688 23.722656 -31.351562 28.234375 -32.59375 L 40.328125 -36.078125 C 40.253906 -41.453125 38.890625 -45.285156 36.234375 -47.578125 C 33.585938 -49.867188 30.226562 -51.015625 26.15625 -51.015625 C 23.101562 -51.015625 20.085938 -50.304688 17.109375 -48.890625 C 14.128906 -47.472656 11.257812 -45.09375 8.5 -41.75 L 7.40625 -42.734375 C 10.457031 -46.503906 14.054688 -49.535156 18.203125 -51.828125 C 22.347656 -54.117188 26.890625 -55.265625 31.828125 -55.265625 C 38.441406 -55.265625 43.328125 -53.535156 46.484375 -50.078125 C 49.648438 -46.628906 51.234375 -41.5625 51.234375 -34.875 L 51.234375 -13.84375 C 51.234375 -9.914062 51.503906 -7.023438 52.046875 -5.171875 C 52.585938 -3.316406 53.769531 -2.101562 55.59375 -1.53125 L 55.59375 0 Z M 13.40625 -17 C 13.40625 -13.4375 14.476562 -10.851562 16.625 -9.25 C 18.769531 -7.65625 21.078125 -6.859375 23.546875 -6.859375 C 26.234375 -6.859375 28.613281 -7.675781 30.6875 -9.3125 C 32.757812 -10.945312 34.503906 -13.054688 35.921875 -15.640625 C 37.335938 -18.222656 38.425781 -20.929688 39.1875 -23.765625 C 39.945312 -26.597656 40.328125 -29.25 40.328125 -31.71875 L 40.328125 -34.546875 L 28.671875 -31.171875 C 27.359375 -30.804688 25.847656 -30.28125 24.140625 -29.59375 C 22.429688 -28.90625 20.757812 -28.015625 19.125 -26.921875 C 17.488281 -25.828125 16.125 -24.460938 15.03125 -22.828125 C 13.945312 -21.203125 13.40625 -19.257812 13.40625 -17 Z M 13.40625 -17 "/></g></g></g><g fill="#604f3f" fill-opacity="1"><g transform="translate(167.050763, 215.999986)"><g><path d="M 20.484375 1.09375 C 16.785156 1.09375 13.972656 -0.175781 12.046875 -2.71875 C 10.117188 -5.269531 9.15625 -9.488281 9.15625 -15.375 L 9.15625 -52.75 L 2.1875 -52.75 L 2.1875 -54.5 L 18.53125 -68.890625 L 20.28125 -68.890625 L 20.28125 -54.5 L 37.171875 -54.5 L 36.734375 -52.75 L 20.28125 -52.75 L 20.28125 -15.265625 C 20.28125 -11.921875 20.894531 -9.46875 22.125 -7.90625 C 23.363281 -6.34375 25.179688 -5.5625 27.578125 -5.5625 C 28.816406 -5.5625 30.285156 -5.90625 31.984375 -6.59375 C 33.691406 -7.28125 35.457031 -8.753906 37.28125 -11.015625 L 38.375 -9.921875 C 35.46875 -6.578125 32.578125 -3.90625 29.703125 -1.90625 C 26.828125 0.09375 23.753906 1.09375 20.484375 1.09375 Z M 20.484375 1.09375 "/></g></g></g><g fill="#604f3f" fill-opacity="1"><g transform="translate(202.038359, 215.999986)"><g><path d="M 29.21875 1.09375 C 24.78125 1.09375 20.582031 0.078125 16.625 -1.953125 C 12.664062 -3.992188 9.46875 -6.972656 7.03125 -10.890625 C 4.59375 -14.816406 3.375 -19.578125 3.375 -25.171875 C 3.375 -29.753906 4.171875 -33.894531 5.765625 -37.59375 C 7.367188 -41.300781 9.566406 -44.460938 12.359375 -47.078125 C 15.160156 -49.703125 18.320312 -51.722656 21.84375 -53.140625 C 25.375 -54.554688 29.03125 -55.265625 32.8125 -55.265625 C 38.625 -55.265625 43.34375 -54.609375 46.96875 -53.296875 C 50.601562 -51.992188 52.421875 -50.578125 52.421875 -49.046875 C 52.421875 -47.960938 52.019531 -46.875 51.21875 -45.78125 C 50.425781 -44.6875 49.46875 -43.773438 48.34375 -43.046875 C 47.21875 -42.328125 46.109375 -41.96875 45.015625 -41.96875 C 43.492188 -41.96875 41.441406 -42.875 38.859375 -44.6875 C 36.273438 -46.507812 32.878906 -49.414062 28.671875 -53.40625 C 25.546875 -52.96875 22.800781 -51.710938 20.4375 -49.640625 C 18.070312 -47.578125 16.253906 -45.019531 14.984375 -41.96875 C 13.710938 -38.914062 13.078125 -35.644531 13.078125 -32.15625 C 13.078125 -27.425781 14.003906 -23.207031 15.859375 -19.5 C 17.710938 -15.800781 20.328125 -12.914062 23.703125 -10.84375 C 27.085938 -8.769531 31.066406 -7.734375 35.640625 -7.734375 C 39.710938 -7.734375 43.3125 -8.53125 46.4375 -10.125 C 49.5625 -11.726562 52.25 -13.800781 54.5 -16.34375 L 55.484375 -15.265625 C 53.804688 -12.710938 51.734375 -10.179688 49.265625 -7.671875 C 46.796875 -5.171875 43.890625 -3.082031 40.546875 -1.40625 C 37.203125 0.257812 33.425781 1.09375 29.21875 1.09375 Z M 29.21875 1.09375 "/></g></g></g><g fill="#604f3f" fill-opacity="1"><g transform="translate(255.773264, 215.999986)"><g><path d="M 2.1875 0 L 2.1875 -1.53125 C 4 -2.101562 5.175781 -3.316406 5.71875 -5.171875 C 6.269531 -7.023438 6.546875 -9.914062 6.546875 -13.84375 L 6.546875 -71.609375 C 6.546875 -74.804688 6.160156 -76.914062 5.390625 -77.9375 C 4.628906 -78.957031 3.5625 -79.753906 2.1875 -80.328125 L 2.1875 -81.859375 L 16.5625 -88.1875 L 17.65625 -87.3125 L 17.65625 -45.453125 C 20.632812 -47.921875 24.050781 -50.171875 27.90625 -52.203125 C 31.757812 -54.242188 35.789062 -55.265625 40 -55.265625 C 45.019531 -55.265625 49.070312 -53.863281 52.15625 -51.0625 C 55.238281 -48.269531 56.78125 -43.675781 56.78125 -37.28125 L 56.78125 -13.84375 C 56.78125 -9.914062 57.050781 -7.023438 57.59375 -5.171875 C 58.144531 -3.316406 59.332031 -2.101562 61.15625 -1.53125 L 61.15625 0 L 41.3125 0 L 41.3125 -1.53125 C 43.125 -2.101562 44.300781 -3.316406 44.84375 -5.171875 C 45.394531 -7.023438 45.671875 -9.914062 45.671875 -13.84375 L 45.671875 -35.3125 C 45.671875 -40.257812 44.632812 -44.09375 42.5625 -46.8125 C 40.488281 -49.539062 37.421875 -50.90625 33.359375 -50.90625 C 30.804688 -50.90625 28.296875 -50.285156 25.828125 -49.046875 C 23.359375 -47.816406 20.632812 -46 17.65625 -43.59375 L 17.65625 -13.84375 C 17.65625 -9.914062 17.925781 -7.023438 18.46875 -5.171875 C 19.019531 -3.316406 20.203125 -2.101562 22.015625 -1.53125 L 22.015625 0 Z M 2.1875 0 "/></g></g></g><g fill="#604f3f" fill-opacity="1"><g transform="translate(129.031586, 265.475008)"><g><path d="M 6.140625 0.234375 C 4.378906 0.234375 3.03125 -0.351562 2.09375 -1.53125 C 1.15625 -2.707031 0.6875 -4.484375 0.6875 -6.859375 C 0.6875 -9.234375 1.15625 -11.007812 2.09375 -12.1875 C 3.03125 -13.363281 4.378906 -13.953125 6.140625 -13.953125 C 7.648438 -13.953125 8.867188 -13.503906 9.796875 -12.609375 C 10.722656 -11.722656 11.1875 -10.394531 11.1875 -8.625 L 8.5625 -8.625 C 8.5625 -9.644531 8.34375 -10.421875 7.90625 -10.953125 C 7.476562 -11.492188 6.890625 -11.765625 6.140625 -11.765625 C 5.203125 -11.765625 4.492188 -11.378906 4.015625 -10.609375 C 3.546875 -9.835938 3.3125 -8.753906 3.3125 -7.359375 L 3.3125 -6.359375 C 3.3125 -4.960938 3.554688 -3.878906 4.046875 -3.109375 C 4.535156 -2.335938 5.257812 -1.953125 6.21875 -1.953125 C 6.976562 -1.953125 7.578125 -2.21875 8.015625 -2.75 C 8.460938 -3.28125 8.6875 -4.054688 8.6875 -5.078125 L 11.1875 -5.078125 C 11.1875 -3.347656 10.722656 -2.03125 9.796875 -1.125 C 8.878906 -0.21875 7.660156 0.234375 6.140625 0.234375 Z M 6.140625 0.234375 "/></g></g></g><g fill="#604f3f" fill-opacity="1"><g transform="translate(150.406928, 265.475008)"><g><path d="M 4.421875 -13.71875 L 7.40625 -13.71875 L 11.8125 0 L 9.203125 0 L 8.359375 -2.703125 L 3.296875 -2.703125 L 2.484375 0 L 0 0 Z M 7.65625 -4.984375 L 6.28125 -9.5625 C 6.1875 -9.851562 6.097656 -10.203125 6.015625 -10.609375 C 5.941406 -11.023438 5.894531 -11.296875 5.875 -11.421875 L 5.796875 -11.421875 C 5.773438 -11.285156 5.722656 -11.003906 5.640625 -10.578125 C 5.554688 -10.160156 5.476562 -9.820312 5.40625 -9.5625 L 4 -4.984375 Z M 7.65625 -4.984375 "/></g></g></g><g fill="#604f3f" fill-opacity="1"><g transform="translate(171.78227, 265.475008)"><g><path d="M 1.203125 -13.71875 L 3.78125 -13.71875 L 3.78125 -6.703125 L 8.796875 -13.71875 L 11.65625 -13.71875 L 7.59375 -8.140625 L 11.78125 0 L 8.90625 0 L 5.921875 -6.125 L 3.78125 -3.5 L 3.78125 0 L 1.203125 0 Z M 1.203125 -13.71875 "/></g></g></g><g fill="#604f3f" fill-opacity="1"><g transform="translate(193.157612, 265.475008)"><g><path d="M 1.203125 -13.71875 L 9.9375 -13.71875 L 9.9375 -11.4375 L 3.765625 -11.4375 L 3.765625 -8.15625 L 9.0625 -8.15625 L 9.0625 -5.875 L 3.765625 -5.875 L 3.765625 -2.28125 L 10.0625 -2.28125 L 10.0625 0 L 1.203125 0 Z M 1.203125 -13.71875 "/></g></g></g><g fill="#604f3f" fill-opacity="1"><g transform="translate(213.633311, 265.475008)"><g><path d="M 1.203125 -13.71875 L 6.9375 -13.71875 C 8.28125 -13.71875 9.316406 -13.359375 10.046875 -12.640625 C 10.773438 -11.921875 11.140625 -10.972656 11.140625 -9.796875 C 11.140625 -8.972656 10.9375 -8.253906 10.53125 -7.640625 C 10.125 -7.023438 9.5625 -6.570312 8.84375 -6.28125 L 11.484375 0 L 8.703125 0 L 6.421875 -5.71875 L 3.765625 -5.71875 L 3.765625 0 L 1.203125 0 Z M 6.578125 -7.984375 C 7.179688 -7.984375 7.628906 -8.140625 7.921875 -8.453125 C 8.222656 -8.765625 8.375 -9.210938 8.375 -9.796875 C 8.375 -10.316406 8.234375 -10.71875 7.953125 -11 C 7.679688 -11.289062 7.257812 -11.4375 6.6875 -11.4375 L 3.765625 -11.4375 L 3.765625 -7.984375 Z M 6.578125 -7.984375 "/></g></g></g><g fill="#604f3f" fill-opacity="1"><g transform="translate(235.008654, 265.475008)"><g><path d="M 4.203125 -5.1875 L 0 -13.71875 L 2.703125 -13.71875 L 5.5 -7.703125 L 5.578125 -7.703125 L 8.359375 -13.71875 L 10.9375 -13.71875 L 6.765625 -5.1875 L 6.765625 0 L 4.203125 0 Z M 4.203125 -5.1875 "/></g></g></g></svg>