<?xml version="1.0" encoding="UTF-8"?>
<svg id="Layer_2" data-name="Layer 2" xmlns="http://www.w3.org/2000/svg" viewBox="0 0 35.94 35.94">
  <g id="Layer_1-2" data-name="Layer 1">
    <g>
      <rect width="35.94" height="35.94" fill="#fff"/>
      <path d="M16.67,23.14l-3,2.95,3.43,3.37,10.12-9.95,3.37,3.43-12.48,12.28L1.08,18.24,13.74,5.8l3.37,3.43L6.85,19.31l3.42,3.37,2.99-2.94,3.4,3.4Z" fill="#22783c"/>
      <path d="M21.34,11.8l-6.72-6.84,3.43-3.37,16.82,17.1-3.43,3.37-6.72-6.84-7.36,7.24-3.4-3.4,7.39-7.27Z" fill="#414042"/>
      <path d="M15.83,20.94c.06-.06,.8-.84,.87-.86,.37-.12,.66-.24,1.03-.35,.07-.02,.08-.05,.07-.11-.06-.31,.09-.61,.37-.75,.28-.13,.59-.07,.82,.17,.2,.21,.23,.54,.08,.8-.17,.3-.56,.42-.88,.26-.06-.03-.11-.04-.18-.01-.38,.13-.56,.19-.95,.31-.05,.02-.86,.8-.89,.84" fill="#22783c"/>
      <path d="M14.82,19.93c.64-.64,1.53-1.53,2.17-2.17,.06-.06,.08-.1,.05-.19-.1-.31,.03-.65,.3-.81,.28-.17,.63-.13,.86,.1,.24,.23,.28,.59,.1,.88-.16,.27-.49,.39-.8,.29-.09-.03-.13,0-.19,.05-.64,.64-1.53,1.53-2.17,2.17l-.33-.33Z" fill="#22783c"/>
      <path d="M17.92,17.18c.12,.12,.12,.29,.01,.42-.12,.12-.31,.13-.43,.01-.12-.11-.12-.31,0-.43,.11-.11,.3-.11,.42,0Z" fill="#414042"/>
      <path d="M18.69,19.28c.12,.11,.12,.29,.01,.41-.11,.12-.3,.13-.42,.01-.12-.11-.12-.31,0-.42,.11-.11,.29-.11,.41,0Z" fill="#414042"/>
    </g>
  </g>
</svg>