<?xml version="1.0" encoding="UTF-8"?>
<svg id="Layer_2" data-name="Layer 2" xmlns="http://www.w3.org/2000/svg" viewBox="0 0 130.32 46.89">
  <defs>
    <style>
      .cls-1 {
        fill: #7f4b2a;
      }
    </style>
  </defs>
  <g id="Layer_1-2" data-name="Layer 1">
    <g>
      <g>
        <path class="cls-1" d="M53.67,19.27c.89.13,1.48,1.02,1.25,1.89-.42,1.59-.78,3-1.05,4.57l-2.26,13.06c-.1.59.43,1.9.76,2.36,1.23,1.75,5.15-.1,5.8-1.85.4-1.06.27-2.53.47-3.67l2.31-13.4-3.27-.17c-.47-.02-.72-1.32-.55-1.74s.93-1.06,1.4-1.08l2.97-.12c.47-2.02.83-3.96.83-6.07,0-.94.74-1.87,1.68-1.99,1.14-.15,2.34-.07,3.48.23,1.29.34,2.19,1.77,2.02,3.1l-.62,4.72,5.09.11c.46.01.75,1.21.62,1.62-.15.47-.97,1.27-1.53,1.27l-4.81.04-2.78,15.99c-.15.85.31,2.24.77,2.77,1.74,2,5.9.55,7.28-1.53-1.52-5.83-.09-12.14,4.37-16.28,5.41-5.02,14.47-5.3,17-.19,1.48,2.97.25,7.37-2.84,8.21-.05.01-.11.03-.16.04-1.92.47-3.44-1.53-2.61-3.33.53-1.16.8-2.41.6-3.76s-1.71-2.25-3.14-1.84c-5.13,1.49-7.07,9.01-6.25,13.88.48,2.82,2.35,5.13,5.14,5.82,4.21,1.04,8.63-.19,11.73-3.21l5.75-32.86c.16-.94.19-1.77.18-2.66-.01-1.07.81-1.97,1.89-2.04s2.12-.04,3.12.14c1.6.29,2.48,1.94,2.19,3.61l-3.67,21.37c1.93-2.33,3.73-4.52,6.38-5.96,2.43-1.31,5.39-1.67,7.71-.03,1.74,1.23,2.51,3.45,2.18,5.56l-2.04,12.95c-.11.73.35,2.03.79,2.49.54.57,1.91.71,2.75.42,3.63-1.28,3.88-4.78,5.06-4.53,2.22.47-1.43,8.52-7.99,9.57-2.25.36-4.44-.21-5.92-1.65-1.37-1.33-2.17-3.53-1.94-5.71.46-4.41,1.31-8.54,2.02-12.97.08-.51-.16-1.51-.46-1.84s-1.43-.37-1.84-.17c-5.35,2.72-9.62,13.82-9.66,20.43,0,1-.77,1.85-1.77,1.95-1.24.12-2.55.04-3.68-.29-1.46-.43-1.75-1.83-1.79-3.49-5.81,4.69-16.58,5.98-21.82-1.15-2.15,2.54-4.79,4.57-8.11,4.93s-6.26-.98-7.7-4.05c-1.99,2.12-4.14,3.7-6.89,4.05-3.82.49-6.98-1.58-7.57-5.63-2.94,4.31-6.65,7.05-11.68,5.06-2.19-.87-4.12-3.17-4.56-5.99-1.33-8.44,2.2-19.24,11.6-20.88,2.88-.5,5.7.17,7.63,2.33,1.39-2.19,3.59-2.78,6.12-2.41ZM46.42,25.82c.07-2.33-3.26-3.22-4.96-2.3-5.19,2.77-6.72,10.73-5.92,15.94.14.95,1.07,1.92,1.74,2.19,5.24,2.12,9.02-11.51,9.15-15.83Z"/>
        <g>
          <path class="cls-1" d="M18,5.43c-2.98-.76-6.53-.73-9.39.43-.45.18-.88.41-1.28.68-.38.25-.72.55-1.03.87s-.56.65-.78,1.02-.39.73-.51,1.12-.21.77-.25,1.17-.03.79.03,1.18.16.78.3,1.14.35.73.58,1.06.32.43.63.73c.13.13.5.61.49.83-.01.27-.06.37-.2.6s-.42.5-.66.64c-.2.12-.59.16-.83.13C3.16,16.88-.25,14.34.01,10.25.33,5.39,3.76,2.82,6.53,1.43c5.44-2.71,12.78-.84,18.74-.32,2.99.26,5.86.52,8.86.47,2.27-.04,4.68-.25,6.76-1.22.4-.19.96-.1,1.24.23,1.29,1.52.78,3.2-.4,4.47-3.18,3.42-11.86,2.09-15.96,1.59"/>
          <path class="cls-1" d="M4.51,16.92c1,.36,1.98,0,2.22-.8.3-1.03-.7-1.28-1.42-2.57"/>
        </g>
      </g>
      <path class="cls-1" d="M21.85,27.52l3.6-20.12c.28-1.57-.58-3.13-2.15-3.4-.99-.17-2.03-.21-3.06-.14-1.05.07-1.86.91-1.85,1.92.01.84-.02,1.62-.18,2.51-2,10.96-4,21.92-5.95,32.88-.3,1.68-.98,4.71,1.35,5.38,1.11.32,2.39.39,3.6.28.98-.09,1.73-.89,1.73-1.84.02-2.43,3.04-17.63,2.9-17.47Z"/>
    </g>
  </g>
</svg>