<svg xmlns="http://www.w3.org/2000/svg" xmlns:xlink="http://www.w3.org/1999/xlink" width="227" zoomAndPan="magnify" viewBox="0 0 340.5 215.999996" height="144" preserveAspectRatio="xMidYMid meet" version="1.0"><defs><g/></defs><g fill="#604f3f" fill-opacity="1"><g transform="translate(38.502809, 136.189534)"><g><path d="M 20.46875 0 L 20.46875 -1.53125 C 22.28125 -2.101562 23.457031 -3.316406 24 -5.171875 C 24.539062 -7.023438 24.8125 -9.910156 24.8125 -13.828125 L 24.8125 -74.234375 L 21.4375 -74.234375 C 16.582031 -74.234375 12.773438 -73.414062 10.015625 -71.78125 C 7.253906 -70.144531 4.859375 -67.148438 2.828125 -62.796875 L 1.53125 -63.015625 L 2.171875 -76.1875 L 58.890625 -76.1875 L 59.53125 -63.015625 L 58.234375 -62.796875 C 56.203125 -67.148438 53.804688 -70.144531 51.046875 -71.78125 C 48.285156 -73.414062 44.476562 -74.234375 39.625 -74.234375 L 36.46875 -74.234375 L 36.46875 -13.828125 C 36.46875 -9.910156 36.738281 -7.023438 37.28125 -5.171875 C 37.820312 -3.316406 39 -2.101562 40.8125 -1.53125 L 40.8125 0 Z M 20.46875 0 "/></g></g></g><g fill="#604f3f" fill-opacity="1"><g transform="translate(95.641696, 136.189534)"><g><path d="M 44.625 0 C 41.71875 0 40.265625 -1.453125 40.265625 -4.359375 L 40.265625 -22.3125 C 39.253906 -18.101562 37.734375 -14.21875 35.703125 -10.65625 C 33.671875 -7.101562 31.164062 -4.253906 28.1875 -2.109375 C 25.21875 0.0234375 21.84375 1.09375 18.0625 1.09375 C 14.070312 1.09375 10.609375 -0.140625 7.671875 -2.609375 C 4.734375 -5.078125 3.265625 -8.597656 3.265625 -13.171875 C 3.265625 -16.941406 4.40625 -20.003906 6.6875 -22.359375 C 8.976562 -24.722656 12.007812 -26.703125 15.78125 -28.296875 C 19.550781 -29.890625 23.6875 -31.304688 28.1875 -32.546875 L 40.265625 -36.03125 C 40.191406 -41.394531 38.832031 -45.21875 36.1875 -47.5 C 33.539062 -49.789062 30.1875 -50.9375 26.125 -50.9375 C 23.070312 -50.9375 20.054688 -50.226562 17.078125 -48.8125 C 14.109375 -47.394531 11.242188 -45.019531 8.484375 -41.6875 L 7.40625 -42.671875 C 10.445312 -46.441406 14.035156 -49.46875 18.171875 -51.75 C 22.304688 -54.039062 26.84375 -55.1875 31.78125 -55.1875 C 38.382812 -55.1875 43.265625 -53.460938 46.421875 -50.015625 C 49.578125 -46.566406 51.15625 -41.503906 51.15625 -34.828125 L 51.15625 -13.828125 C 51.15625 -9.910156 51.425781 -7.023438 51.96875 -5.171875 C 52.519531 -3.316406 53.703125 -2.101562 55.515625 -1.53125 L 55.515625 0 Z M 13.390625 -16.984375 C 13.390625 -13.421875 14.457031 -10.84375 16.59375 -9.25 C 18.738281 -7.65625 21.046875 -6.859375 23.515625 -6.859375 C 26.191406 -6.859375 28.5625 -7.671875 30.625 -9.296875 C 32.695312 -10.929688 34.441406 -13.035156 35.859375 -15.609375 C 37.273438 -18.191406 38.363281 -20.894531 39.125 -23.71875 C 39.882812 -26.550781 40.265625 -29.203125 40.265625 -31.671875 L 40.265625 -34.5 L 28.625 -31.125 C 27.320312 -30.757812 25.816406 -30.234375 24.109375 -29.546875 C 22.398438 -28.859375 20.726562 -27.96875 19.09375 -26.875 C 17.46875 -25.789062 16.109375 -24.429688 15.015625 -22.796875 C 13.929688 -21.171875 13.390625 -19.234375 13.390625 -16.984375 Z M 13.390625 -16.984375 "/></g></g></g><g fill="#604f3f" fill-opacity="1"><g transform="translate(149.515491, 136.189534)"><g><path d="M 20.46875 1.09375 C 16.757812 1.09375 13.941406 -0.175781 12.015625 -2.71875 C 10.097656 -5.257812 9.140625 -9.46875 9.140625 -15.34375 L 9.140625 -52.6875 L 2.171875 -52.6875 L 2.171875 -54.421875 L 18.5 -68.796875 L 20.25 -68.796875 L 20.25 -54.421875 L 37.109375 -54.421875 L 36.6875 -52.6875 L 20.25 -52.6875 L 20.25 -15.234375 C 20.25 -11.898438 20.863281 -9.453125 22.09375 -7.890625 C 23.332031 -6.328125 25.144531 -5.546875 27.53125 -5.546875 C 28.769531 -5.546875 30.238281 -5.890625 31.9375 -6.578125 C 33.644531 -7.273438 35.40625 -8.75 37.21875 -11 L 38.3125 -9.90625 C 35.40625 -6.5625 32.519531 -3.890625 29.65625 -1.890625 C 26.789062 0.0976562 23.726562 1.09375 20.46875 1.09375 Z M 20.46875 1.09375 "/></g></g></g><g fill="#604f3f" fill-opacity="1"><g transform="translate(184.451787, 136.189534)"><g><path d="M 29.171875 1.09375 C 24.742188 1.09375 20.550781 0.078125 16.59375 -1.953125 C 12.644531 -3.984375 9.453125 -6.957031 7.015625 -10.875 C 4.585938 -14.800781 3.375 -19.554688 3.375 -25.140625 C 3.375 -29.710938 4.171875 -33.847656 5.765625 -37.546875 C 7.359375 -41.253906 9.550781 -44.410156 12.34375 -47.015625 C 15.144531 -49.628906 18.304688 -51.644531 21.828125 -53.0625 C 25.347656 -54.476562 28.992188 -55.1875 32.765625 -55.1875 C 38.566406 -55.1875 43.28125 -54.53125 46.90625 -53.21875 C 50.539062 -51.914062 52.359375 -50.503906 52.359375 -48.984375 C 52.359375 -47.890625 51.957031 -46.796875 51.15625 -45.703125 C 50.351562 -44.617188 49.390625 -43.710938 48.265625 -42.984375 C 47.140625 -42.265625 46.035156 -41.90625 44.953125 -41.90625 C 43.429688 -41.90625 41.378906 -42.8125 38.796875 -44.625 C 36.222656 -46.4375 32.832031 -49.335938 28.625 -53.328125 C 25.507812 -52.898438 22.769531 -51.648438 20.40625 -49.578125 C 18.050781 -47.503906 16.238281 -44.941406 14.96875 -41.890625 C 13.695312 -38.847656 13.0625 -35.585938 13.0625 -32.109375 C 13.0625 -27.390625 13.984375 -23.179688 15.828125 -19.484375 C 17.679688 -15.785156 20.296875 -12.898438 23.671875 -10.828125 C 27.046875 -8.765625 31.019531 -7.734375 35.59375 -7.734375 C 39.65625 -7.734375 43.242188 -8.53125 46.359375 -10.125 C 49.484375 -11.71875 52.171875 -13.785156 54.421875 -16.328125 L 55.40625 -15.234375 C 53.726562 -12.691406 51.65625 -10.171875 49.1875 -7.671875 C 46.726562 -5.171875 43.828125 -3.082031 40.484375 -1.40625 C 37.148438 0.257812 33.378906 1.09375 29.171875 1.09375 Z M 29.171875 1.09375 "/></g></g></g><g fill="#604f3f" fill-opacity="1"><g transform="translate(238.107903, 136.189534)"><g><path d="M 2.171875 0 L 2.171875 -1.53125 C 3.984375 -2.101562 5.160156 -3.316406 5.703125 -5.171875 C 6.253906 -7.023438 6.53125 -9.910156 6.53125 -13.828125 L 6.53125 -71.515625 C 6.53125 -74.703125 6.148438 -76.800781 5.390625 -77.8125 C 4.628906 -78.832031 3.554688 -79.632812 2.171875 -80.21875 L 2.171875 -81.734375 L 16.546875 -88.046875 L 17.625 -87.1875 L 17.625 -45.390625 C 20.601562 -47.859375 24.015625 -50.109375 27.859375 -52.140625 C 31.703125 -54.171875 35.734375 -55.1875 39.953125 -55.1875 C 44.953125 -55.1875 48.992188 -53.785156 52.078125 -50.984375 C 55.160156 -48.191406 56.703125 -43.601562 56.703125 -37.21875 L 56.703125 -13.828125 C 56.703125 -9.910156 56.972656 -7.023438 57.515625 -5.171875 C 58.066406 -3.316406 59.25 -2.101562 61.0625 -1.53125 L 61.0625 0 L 41.25 0 L 41.25 -1.53125 C 43.0625 -2.101562 44.238281 -3.316406 44.78125 -5.171875 C 45.332031 -7.023438 45.609375 -9.910156 45.609375 -13.828125 L 45.609375 -35.265625 C 45.609375 -40.203125 44.570312 -44.03125 42.5 -46.75 C 40.4375 -49.46875 37.375 -50.828125 33.3125 -50.828125 C 30.769531 -50.828125 28.265625 -50.207031 25.796875 -48.96875 C 23.328125 -47.738281 20.601562 -45.925781 17.625 -43.53125 L 17.625 -13.828125 C 17.625 -9.910156 17.894531 -7.023438 18.4375 -5.171875 C 18.988281 -3.316406 20.171875 -2.101562 21.984375 -1.53125 L 21.984375 0 Z M 2.171875 0 "/></g></g></g><g fill="#604f3f" fill-opacity="1"><g transform="translate(111.552065, 185.592013)"><g><path d="M 6.125 0.234375 C 4.375 0.234375 3.023438 -0.351562 2.078125 -1.53125 C 1.140625 -2.707031 0.671875 -4.476562 0.671875 -6.84375 C 0.671875 -9.21875 1.140625 -10.992188 2.078125 -12.171875 C 3.023438 -13.347656 4.375 -13.9375 6.125 -13.9375 C 7.632812 -13.9375 8.847656 -13.488281 9.765625 -12.59375 C 10.691406 -11.707031 11.15625 -10.378906 11.15625 -8.609375 L 8.546875 -8.609375 C 8.546875 -9.628906 8.328125 -10.40625 7.890625 -10.9375 C 7.460938 -11.46875 6.875 -11.734375 6.125 -11.734375 C 5.195312 -11.734375 4.492188 -11.347656 4.015625 -10.578125 C 3.546875 -9.816406 3.3125 -8.738281 3.3125 -7.34375 L 3.3125 -6.34375 C 3.3125 -4.945312 3.550781 -3.863281 4.03125 -3.09375 C 4.519531 -2.332031 5.242188 -1.953125 6.203125 -1.953125 C 6.960938 -1.953125 7.5625 -2.210938 8 -2.734375 C 8.445312 -3.265625 8.671875 -4.046875 8.671875 -5.078125 L 11.15625 -5.078125 C 11.15625 -3.335938 10.695312 -2.015625 9.78125 -1.109375 C 8.863281 -0.210938 7.644531 0.234375 6.125 0.234375 Z M 6.125 0.234375 "/></g></g></g><g fill="#604f3f" fill-opacity="1"><g transform="translate(132.896065, 185.592013)"><g><path d="M 4.40625 -13.703125 L 7.390625 -13.703125 L 11.796875 0 L 9.1875 0 L 8.34375 -2.703125 L 3.296875 -2.703125 L 2.46875 0 L 0 0 Z M 7.640625 -4.96875 L 6.265625 -9.546875 C 6.171875 -9.835938 6.082031 -10.1875 6 -10.59375 C 5.925781 -11.007812 5.882812 -11.28125 5.875 -11.40625 L 5.796875 -11.40625 C 5.765625 -11.269531 5.707031 -10.988281 5.625 -10.5625 C 5.550781 -10.144531 5.472656 -9.804688 5.390625 -9.546875 L 4 -4.96875 Z M 7.640625 -4.96875 "/></g></g></g><g fill="#604f3f" fill-opacity="1"><g transform="translate(154.240066, 185.592013)"><g><path d="M 1.203125 -13.703125 L 3.78125 -13.703125 L 3.78125 -6.6875 L 8.78125 -13.703125 L 11.640625 -13.703125 L 7.59375 -8.125 L 11.765625 0 L 8.890625 0 L 5.90625 -6.109375 L 3.78125 -3.5 L 3.78125 0 L 1.203125 0 Z M 1.203125 -13.703125 "/></g></g></g><g fill="#604f3f" fill-opacity="1"><g transform="translate(175.584066, 185.592013)"><g><path d="M 1.203125 -13.703125 L 9.921875 -13.703125 L 9.921875 -11.421875 L 3.75 -11.421875 L 3.75 -8.140625 L 9.046875 -8.140625 L 9.046875 -5.875 L 3.75 -5.875 L 3.75 -2.28125 L 10.046875 -2.28125 L 10.046875 0 L 1.203125 0 Z M 1.203125 -13.703125 "/></g></g></g><g fill="#604f3f" fill-opacity="1"><g transform="translate(196.029743, 185.592013)"><g><path d="M 1.203125 -13.703125 L 6.921875 -13.703125 C 8.273438 -13.703125 9.3125 -13.34375 10.03125 -12.625 C 10.757812 -11.90625 11.125 -10.957031 11.125 -9.78125 C 11.125 -8.957031 10.921875 -8.238281 10.515625 -7.625 C 10.109375 -7.007812 9.546875 -6.554688 8.828125 -6.265625 L 11.46875 0 L 8.6875 0 L 6.40625 -5.71875 L 3.75 -5.71875 L 3.75 0 L 1.203125 0 Z M 6.5625 -7.96875 C 7.164062 -7.96875 7.613281 -8.125 7.90625 -8.4375 C 8.207031 -8.75 8.359375 -9.195312 8.359375 -9.78125 C 8.359375 -10.300781 8.21875 -10.703125 7.9375 -10.984375 C 7.664062 -11.273438 7.242188 -11.421875 6.671875 -11.421875 L 3.75 -11.421875 L 3.75 -7.96875 Z M 6.5625 -7.96875 "/></g></g></g><g fill="#604f3f" fill-opacity="1"><g transform="translate(217.373743, 185.592013)"><g><path d="M 4.1875 -5.171875 L 0 -13.703125 L 2.703125 -13.703125 L 5.484375 -7.6875 L 5.578125 -7.6875 L 8.34375 -13.703125 L 10.921875 -13.703125 L 6.75 -5.171875 L 6.75 0 L 4.1875 0 Z M 4.1875 -5.171875 "/></g></g></g></svg>